/* XPM */
static char *result[] = {
/* columns rows colors chars-per-pixel */
"64 64 108 2 ",
"   c #28223F",
".  c #252241",
"X  c #282342",
"o  c #2A264D",
"O  c #2A2E4E",
"+  c #342341",
"@  c #382541",
"#  c #3E2B46",
"$  c #37274D",
"%  c #2B2750",
"&  c #2D2B53",
"*  c #302F54",
"=  c #2C3253",
"-  c #313056",
";  c #3D3155",
":  c #34325A",
">  c #38365B",
",  c #3F3D5E",
"<  c #362F69",
"1  c #343E63",
"2  c #37336D",
"3  c #3A3069",
"4  c #3C3376",
"5  c #432642",
"6  c #4D2642",
"7  c #4C2B45",
"8  c #5A2743",
"9  c #5C2843",
"0  c #532C49",
"q  c #403D5E",
"w  c #4A3B59",
"e  c #632D46",
"r  c #6D2B44",
"t  c #672F48",
"y  c #673048",
"u  c #6A3249",
"i  c #75334A",
"p  c #78344A",
"a  c #743D4A",
"s  c #7C384B",
"d  c #733F52",
"f  c #423C7D",
"g  c #334063",
"h  c #3A4C71",
"j  c #3C5076",
"k  c #44405F",
"l  c #7A4557",
"z  c #444160",
"x  c #803F53",
"c  c #86404C",
"v  c #88424D",
"b  c #844254",
"n  c #8B4757",
"m  c #8D4858",
"M  c #914C51",
"N  c #99555A",
"B  c #9F585B",
"V  c #A05B5C",
"C  c #B05C54",
"Z  c #AB6A5A",
"A  c #B7725F",
"S  c #A96361",
"D  c #C36A57",
"F  c #C67C62",
"G  c #C68062",
"H  c #CB8465",
"J  c #CE8868",
"K  c #D98C65",
"L  c #D08968",
"P  c #E29A6B",
"I  c #433987",
"U  c #433988",
"Y  c #493F8C",
"T  c #3F5A80",
"R  c #4E4781",
"E  c #4D4E82",
"W  c #4E5287",
"Q  c #415C83",
"!  c #52528F",
"~  c #4B4490",
"^  c #564D92",
"/  c #534F99",
"(  c #595B97",
")  c #595C98",
"_  c #635D9E",
"`  c #45668F",
"'  c #486B93",
"]  c #78718F",
"[  c #65669B",
"{  c #7A749C",
"}  c #6263A9",
"|  c #6669AF",
" . c #7067A2",
".. c #7272AF",
"X. c #6A6EB2",
"o. c #7A7CB7",
"O. c #7A7CB8",
"+. c #807EA3",
"@. c #817BAC",
"#. c #8E89A7",
"$. c #8E8AA8",
"%. c #9A95BB",
"&. c #9A98BE",
"*. c #9D9BC2",
"=. c #A7A2C2",
"-. c #ADA9C7",
";. c #AFABC8",
":. c #B0ACCA",
/* pixels */
"' ' ' ' ' ' ' ' ' ' ' ' ' ' ' ' ' ' ' ' ' ' ' ' ' ' ' ' ' ' ' ' ' ' ' ' ' ' ' ' ' ' ' ' ' ' ' ' ' ' ' ' ' ' ' ' ' ' ' ' ' ' ' ' ",
"' ' ' ' ' ' ' ' ' ' ' ' ' ' ' ' ' ' ' ' ' ' ' ' ' ' ' ' ' ' ' ' ' ' ' ' ' ' ' ' ' ' ' ' ' ' ' ' ' ' ' ' ' ' ' ' ' ' ' ' ' ' ' ' ",
"' ' ' ' ' ' ' ' ' ' ' ' ' ' ' ' ' ' ' ' ` ' ' ' ' ' ' ' ' ' ' ' ' ' ' ' ' ' ' ' ' ' ' ' ' ' ' ' ' ' ' ' ` ' ' ' ' ' ' ' ' ' ' ' ",
"' ' ' ' ' ' ' ' ' ' ' ' ' ' ' ' ' ' ' ' ' ' ' ' ' ' ' ' ' ' ' ' ' ' ' ' ' ' ' ' ' ' ' ' ' ' ' ' ' ' ' ' ' ' ' ' ' ' ' ' ' ' ' ' ",
"' ' ' ' ' ' ' ' ' ' ' ' ' ' ' ' ' ' ' ' ' ' ' ' ' ' ' ' ' ' ' ' ' ' ' ' ' ' ' ' ' ' ' ' ' ' ' ' ' ' ' ' ' ' ' ' ' ' ' ' ' ' ' ' ",
"' ' ' ' ' ' ' ' ' ' ' ' ' ' ' ' ' ' ' ' ' ' ' ' ' ' ' ' ' ' ' ' ' ' ' ' ' ' ' ' ' ' ' ' ' ' ' ' ' ' ' ' ' ' ' ' ' ' ' ' ' ' ' ' ",
"' ' ' ' ' ' ' ' ' ` ' ' ' ' ' ' ' ' ' ' ' ' ' ' ' ' ' ' ' ' ' ' ' ' ' ' ' ' ' ' ' ' ' ' ' ' ' ' ' ' ' ' ' ' ' ' ' ' ' ' ' ' ' ' ",
"' ' ' ' ' ' ' ' ' ' ' ' ' ' ' ' ' ' ' ' ' ' ' ' ' ' ' ' ' ' ' ' ' ' ' ' ' ' ' ' ' ' ' ' ' ' ' ' ' ' ' ' ' ' ' ' ' ' ' ' ' ' ' ' ",
"' ' ' ' ' ' ' ' ' ' ' ' ' ' ' ' ' ' ' ' ' ' ' ' ' ' ' ' ' ' ' ' ' ' ' ' ' ' ' ' ' ' ' ' ' ' ' ' ' ' ' ' ' ' ' ' ' ' ' ' ' ' ` ' ",
"' ' ' ' ' ' ' ' ' ' ' ' ' ' ' ' ' ' ' ' ' ' ' ' ' ' ' ' ' ' ' ' ` ' ' ' ' ' ' ' ' ' ' ' ' ' ' ' ' ' ' ' ' ' ' ' ' ' ' ' ' ' ' ' ",
"' ' ' ' ' ' ' ' ' ' ' ' ' ' ' ' ' ' ' ' ' ' ' ' ' ' ' ' ' ' ' ' ' ' ' ' ' ' ' ' ' ' ' ' ' ' ' ' ' ' ' ' ' ' ' ' ' ' ' ' ' ' ' ' ",
"' ' ' ' ' ' ' ' ' ' ' ' ' ' ' ' ' ' ' ' ' ' ' ' ' ' ' ' ' ' ' ' ' ' ' ' ' ' ' ' ' ' ' ' ' ' ' ' ' ' ' ' ' ' ' ' ' ' ' ' ' ' ' ' ",
"' ' ' ' ' ' ' ' ' ' ' ' ' ' ' ' ' ' ' ' ' ' ' ' ' ' ' ' ' ' ' ' ' ' ' ' ' ' ' ' ' ' ` ' ' ' ' ' ' ` ' ' ' ' ' ' ' ' ' ' ' ' ' ' ",
"' ' ' ' ' ' ' ' ' ' ' ' ' ' ' ' ' ' ' ' ' ' ' ' ' ' ' ' ' ' ' ' ' ' ' ' ' ' ' ' ' ' ' ' ' ' ' ' ' ' ' ' ' ' ' ' ' ' ' ' ' ' ' ' ",
"' ' ' ' ' ' ' ' ' ' ' ' ' ' ' ' ' ' ' ' ' ' ' ' ' ' ' ' ' ' ' ' ' ' ' ' ' ' ' ' ' ' ' ' ' ' ' ' ' ' ' ' ' ' ' ' ' ' ' ' ' ' ' ' ",
"' ' ' ' ' ' ' ' ' ' Q Q Q ` z Q ` ' ' ' ' ' ' ' ' ' ' ' ' ' ' ' ' ' ' ' ' ' ' ' ' ' ' ' ' ` j ` j ` j j ` ' ' ' ' ' ' ' ' ' ' ' ",
"' ' ' ' ' ' ' ' ' ` 1 = = = = g Q ' ' ' ' ' ' ' ' ' ' ' ' ' ' ' ' ' ' ' ' ' ' ' ' ' ' ' ' Q g = , = = g Q ' ' ' ' ' ' ' ' ' ' ' ",
"' ' ' ' ' ' ' ` Q h : % = & . & j T z Q ` Q Q Q T Q T T T T ` j T T T T T T T T T T T Q T h = X = > : g j Q ' ' ' ' ' ' ' ' ' ' ",
"' ' ' ' ' ' ' T 1 : 2 f ! E * . = = = = = = = = = = = = = = = = = = = = = = = = = = = = = = . = W ( ( W g g Q ' ' ' ' ' ' ' ' ' ",
"' ' ' ' ' ' ' T = % f / | ( : .   .   @ # # # $ + + # # # 5 ; # # ; # # @ + # # # # + + . . X : ( X...( : = Q ' ' ' ' ' ' ' ' ' ",
"' ' ' ' ' ' ' T = * ! } | ( : . X X 7 e l l l l e y d l l l l l l l l l 9 y l l l l 9 6 + .   : ( | | ( : O Q ' ' ' ' ' ' ' ' ' ",
"' ' ' ' ' ' ' T = > [ o.o.[ >   + 5 a M V S Z N c c B S S S S S S S Z N v v N S S V M a 7 X   : [ o.o.[ : = Q ' ' ' ' ' ' ' ' ' ",
"' ' ' ' ' ' ' T = q +.*.*.+.q + 6 a Z H J J H A C C F J J J J J J L J F C C F J J H H Z a 6 + q +.&.*.#., = j ' ' ' ' ' ' ' ' ' ",
"' ' ' ' ' ' ' T = q #.;.;.#.k + 9 v H P P P P K D D L P P P P P P P P L D D K P P P P G v 9 + z #.;.:.#.k = Q ' ' ' ' ' ' ' ' ' ",
"' ' ' ' ' ' ' Q = z $.;.;.#.q + 9 v G P P P P K D D K P P P P P P P P K D D K P P P P F v 9 + z #.-.-.#.z = T ' ' ' ' ' ' ' ' ' ",
"' ' ' ' ' ' ' Q = g +.*.*.+.q @ 9 c A J J J J F C C F J J J J J J J J F C C F L J J J A c 9 + q o.*.&.#.g = T ' ' ' ' ' ' ' ' ' ",
"' ' ' ' ' ' ' T = > [ O.o.[ >   9 s N S S S S N v v B S S S S S S S S B c c B S S S S N s 8   > [ o.o.[ > - T ' ' ' ' ' ' ' ' ' ",
"' ' ' ' ' ' ' T = : ( X.X.( > X 6 t l m n n n b u r b n l l l l l l n x i r b n n n n b t 6 + : (  .X.( : = T ' ' ' ' ' ' ' ' ' ",
"' ' ' ' ' ' ' T = : ( X.X.( :     6 y p p p p i r r i t 7 # # # # 7 y p r r p p p p p y 5     : ( X.X.( : = T ' ' ' ' ' ' ' ' ' ",
"' ' ' ' ' ' ' T = : ( X.X.( : . . + 6 9 9 9 9 9 8 e 8 6 ; < , z z w 0 9 9 9 9 9 9 9 9 6 + . . : ( X.X.( : = T ' ' ' ' ' ' ' ' ' ",
"' ' ' ' ' ' ' T & : ( X.X.( :   . . + + + + + + + + + w E [ #.#.$.] w + + + + + + + @   X .   : ( X.X.( : = j ' ' ' ' ' ' ' ' ' ",
"' ' ' ' ' ' ' T = : ( X.X.( :   . . . . o % % & - * X : ( o.&.-.:.$.z X - : % % % O . . . .   : ( X.X.( : = T ' ' ' ' ' ' ' ' ' ",
"' ' ' ' ' ' ' T = : ) X.X.( > .   .   o < 4 4 f ^ E * : ( O.*.-.;.$.q * E ! f 4 4 < o . . . . : ( X.X.) : = j ' ' ' ' ' ' ' ' ' ",
"' ' ' ' ' ' ' T = & E ) ) W & . . . . o 4 I I ~ } ) : - ! ..%.=.&.{ , : ( } ~ I U 4 %   . . . : E ( ( E - = ` ' ' ' ' ' ' ' ' ' ",
"' ' ' ' ' ' ' T = X & > > & . . . .   o 4 I I ~ } ) : & 4 _ %.%. .R & : ( } ~ I I 4 % .   . . . * : : = o = T ' ' ' ' ' ' ' ' ' ",
"' ' ' ' ' ' ' T = . o o % o . . . .   o < 4 4 I ^ E = % 4 ^ @.@.^ 4 % - z ! f 4 4 < O X . . . . o o % o . = T ' ' ' ' ' ' ' ' ' ",
"' ' ' ' ' ' ' T = o 3 4 4 < o .   . . . o % % & : = . % 4 ~ ^ ^ Y 4 % o 1 : & & % o . X . .   o < 4 4 < o = Q ' ' ' ' ' ' ' ' ' ",
"' ' ' ' ' ' ' T = % 4 U U 4 % . X + + + + + + @ # # @ * 3 4 4 4 4 3 $ + 5 $ @ + + + + + + + . % 4 U U 4 o = Q ' ' ' ' ' ' ' ' ' ",
"' ' ' ' ' ' ' T = O 4 U U 4 % + 6 9 9 9 9 8 9 e d d t 6 $ % % % % $ 6 e d d e 9 9 9 9 9 9 6 + % 4 U I 4 % = Q ' ' ' ' ' ' ' ' ' ",
"' ' ' ' ' ' ' T = % 4 U I 4 % + 9 r r r r r r p m m p 9 5 + + + + 5 e p m m i r r r r r r 9 @ o 4 U I 4 o = j ' ' ' ' ' ' ' ' ' ",
"' ' ' ' ' ' ' T = o 4 I U 4 % + 9 r r r r r r i m m i e 9 8 9 9 8 9 r i m m i r r r r r r 9 + o 4 I I 4 O = T ' ' ' ' ' ` ' ' ' ",
"' ' ' ' ' ' ' T = o 4 U I 4 $   6 e r r r r r i n n i r r r r r r r r i m m i r r r r e 9 6   * 4 U I 4 % = T ' ' ' ' ' ' ' ' ' ",
"' ' ' ' ' ' ' T = % 4 U U 4 % X + 5 e r r r r i n n p r r r r r r u r i m m p r r r r 9 5 + X % 4 U U 4 o = T ' ' ' ' ' ' ' ' ' ",
"' ' ' ' ' ' ' T = o 2 4 4 3 o . . X 6 8 9 9 9 9 d l y 9 8 8 9 9 9 9 9 9 d d e 9 9 9 9 6 X . X % 2 4 4 3 o = T ' ' ' ' ' ' ' ' ' ",
"' ' ' ' ' ' ' T = . % % % O . . . X + + + + + + # # + + + + @ + + + + + # # + + + + o + X . X . o o % o   = j ' ' ' ' ' ' ' ' ' ",
"' ' ' ' ' ' ' Q g = = = = = = = = = = = = = = = = = = = = = = = = = = = = = = = = = = = = = = = = = = = = g ` ' ' ' ' ' ' ' ' ' ",
"' ' ' ' ' ' ' ' ` j T T T T T T T T Q Q j ` Q j T T T T Q Q z ` Q Q T T Q T T T Q Q z ` T T T T T T T T j ` ` ' ' ' ' ' ' ' ' ' ",
"' ' ' ' ' ' ' ' ' ' ' ' ' ' ' ' ' ' ' ' ' ' ' ' ' ' ' ' ' ' ' ' ' ' ' ' ' ' ' ' ' ' ' ' ' ' ' ' ' ' ' ' ' ' ' ' ' ' ' ' ' ' ' ' ",
"' ' ' ' ' ' ' ' ' ' ' ' ' ' ' ' ' ' ' ' ' ' ' ' ' ' ' ' ' ' ' ' ' ' ' ' ' ' ' ' ' ' ' ' ' ' ' ` ' ' ' ' ' ' ' ' ' ' ' ' ' ' ' ' ",
"' ' ' ' ' ' ' ' ' ' ' ' ' ' ' ' ' ' ' ' ' ' ' ' ' ' ' ' ' ' ' ' ' ' ' ' ' ' ' ' ' ' ' ' ' ' ' ' ' ' ' ' ' ' ' ' ' ' ' ' ' ' ' ' ",
"' ' ' ' ' ' ' ' ' ' ' ' ' ' ' ' ' ' ' ' ' ' ' ' ' ' ' ' ' ' ' ' ' ' ' ' ' ' ' ' ' ' ' ' ' ' ' ' ' ' ' ' ' ' ' ' ' ' ' ' ' ' ' ' ",
"' ' ' ' ' ' ' ' ' ' ' ' ' ' ' ' ' ' ' ' ' ' ' ' ' ' ' ' ' ' ' ' ' ' ' ' ' ' ' ' ' ' ' ' ' ' ' ' ' ' ' ' ' ' ' ' ' ' ' ' ' ' ' ' ",
"' ' ' ' ' ' ' ' ' ' ' ' ' ' ' ' ' ' ' ' ' ' ' ' ' ' ' ' ` ' ' ' ' ' ' ' ' ' ' ' ' ' ' ' ' ' ' ' ' ' ' ' ' ' ' ' ' ' ' ' ' ' ' ' ",
"' ' ' ' ' ' ' ' ' ` ' ' ' ' ' ' ' ' ' ' ' ' ' ' ' ' ' ' ' ' ' ' ' ` ' ' ' ' ' ' ' ' ' ' ' ' ' ' ' ' ' ' ' ' ' ' ' ' ' ' ' ' ' ' ",
"' ' ' ' ' ' ' ' ' ' ' ' ' ' ' ' ' ' ' ' ' ' ' ' ' ' ' ' ' ' ' ' ' ' ' ' ' ' ' ' ' ' ' ' ' ' ' ' ' ' ' ' ' ' ' ' ' ' ' ' ' ' ' ' ",
"' ' ' ' ' ' ' ' ' ' ' ' ' ' ' ' ' ' ' ' ' ` ' ' ' ' ' ' ' ' ' ' ' ' ' ' ' ' ' ' ' ' ' ' ' ' ' ' ' ' ' ' ' ' ' ' ' ' ' ' ' ' ' ' ",
"' ' ' ' ' ' ` ' ' ' ' ' ' ' ' ' ' ' ' ' ' ' ' ' ' ' ' ' ' ' ' ' ' ' ' ' ' ' ' ' ' ' ' ' ' ' ' ' ' ' ' ' ' ' ' ' ' ' ' ' ' ' ' ' ",
"' ' ' ' ' ' ' ' ' ' ' ' ' ' ' ' ' ' ' ' ' ' ' ' ' ' ' ' ' ' ' ' ' ' ' ' ' ' ' ' ' ' ' ' ' ' ' ' ' ' ' ' ' ' ' ' ' ' ' ' ' ' ' ' ",
"' ' ' ' ' ' ' ' ' ' ' ' ' ' ' ' ' ' ' ' ' ' ' ' ' ' ' ' ' ' ' ' ' ' ' ' ' ' ' ' ' ' ' ' ' ' ' ' ' ' ' ' ' ' ' ' ' ' ' ' ' ' ' ' ",
"' ' ' ' ' ' ' ' ' ' ' ' ' ' ' ' ' ' ' ' ' ' ' ' ' ' ' ' ' ' ' ' ' ' ' ' ' ' ' ' ' ' ' ' ' ' ' ' ' ' ' ' ' ' ' ' ' ' ' ' ' ' ' ` ",
"' ' ' ' ' ' ' ' ' ' ' ' ' ' ' ' ' ' ' ' ' ' ' ' ' ' ' ' ' ' ' ' ' ' ' ' ' ' ' ' ' ' ' ' ' ' ' ' ' ' ' ' ' ' ' ' ' ' ' ' ' ' ' ' ",
"' ' ' ' ' ' ' ' ' ' ' ' ' ' ' ' ' ' ' ' ' ' ' ' ' ' ' ' ' ' ' ' ' ' ' ' ' ' ' ' ' ' ' ' ' ' ' ' ' ' ` ' ' ' ' ' ' ' ' ' ' ' ' ' ",
"' ' ' ' ' ' ' ' ' ' ' ' ' ' ' ' ' ' ' ' ' ' ' ' ' ' ' ' ' ' ' ' ' ' ' ' ' ' ' ' ' ' ' ' ' ' ' ' ' ' ' ' ' ' ' ' ' ' ' ' ' ' ' ' ",
"' ' ' ' ' ' ' ' ' ' ' ' ' ' ' ' ' ' ' ' ' ' ' ' ' ' ' ' ' ' ' ' ' ' ' ' ' ' ' ' ' ' ' ' ' ' ' ' ' ' ' ' ' ' ' ' ' ' ' ' ' ' ' ' "
};
