/* XPM */
static char *result[] = {
/* columns rows colors chars-per-pixel */
"64 64 111 2 ",
"   c #242140",
".  c #252140",
"X  c #242240",
"o  c #252241",
"O  c #262345",
"+  c #292241",
"@  c #292648",
"#  c #2A264D",
"$  c #322341",
"%  c #362441",
"&  c #392643",
"*  c #3E2B46",
"=  c #37284E",
"-  c #2B2650",
";  c #2C2752",
":  c #2E2B54",
">  c #332E56",
",  c #313056",
"<  c #3F3156",
"1  c #33315A",
"2  c #34335A",
"3  c #36345D",
"4  c #3A385E",
"5  c #352E67",
"6  c #362F6A",
"7  c #3A2F68",
"8  c #3B3374",
"9  c #442542",
"0  c #4C2742",
"q  c #462843",
"w  c #4E2847",
"e  c #4B2C44",
"r  c #412D48",
"t  c #4E2F48",
"y  c #5A2843",
"u  c #5E2943",
"i  c #512B49",
"p  c #552F4B",
"a  c #403C5E",
"s  c #4B3D5A",
"d  c #672A43",
"f  c #6C2B44",
"g  c #6E2D45",
"h  c #622F48",
"j  c #663048",
"k  c #693249",
"l  c #733248",
"z  c #76344A",
"x  c #743D4A",
"c  c #7B394B",
"v  c #713E51",
"b  c #7F3F52",
"n  c #423D7C",
"m  c #794556",
"M  c #7E4556",
"N  c #424061",
"B  c #474362",
"V  c #84424C",
"C  c #89424D",
"Z  c #89464D",
"A  c #834052",
"S  c #874657",
"D  c #8B4757",
"F  c #914D52",
"G  c #995559",
"H  c #9E585A",
"J  c #A05B5C",
"K  c #B05D54",
"L  c #A96859",
"P  c #B5705E",
"I  c #A86361",
"U  c #C36B58",
"Y  c #C47961",
"T  c #C37D61",
"R  c #C67F62",
"E  c #CB8466",
"W  c #CE8767",
"Q  c #D78964",
"!  c #E1996B",
"~  c #433986",
"^  c #4F4880",
"/  c #4B4C80",
"(  c #4F4C80",
")  c #4D4F83",
"_  c #49408A",
"`  c #50508C",
"'  c #4C4690",
"]  c #564E92",
"[  c #534F98",
"{  c #585A95",
"}  c #645E9E",
"|  c #756E8C",
" . c #646599",
".. c #777299",
"X. c #5F60A6",
"o. c #6163A8",
"O. c #6669AE",
"+. c #716AA2",
"@. c #7E7CA1",
"#. c #7272AE",
"$. c #7E78AA",
"%. c #696DB1",
"&. c #7A7CB6",
"*. c #8B87A5",
"=. c #9490B9",
"-. c #9994BA",
";. c #9996BE",
":. c #9C9AC1",
">. c #A6A2C2",
",. c #ADA9C7",
"<. c None",
/* pixels */
"<.<.<.<.<.<.<.<.<.<.<.<.<.<.<.<.<.<.<.<.<.<.<.<.<.<.<.<.<.<.<.<.<.<.<.<.<.<.<.<.<.<.<.<.<.<.<.<.<.<.<.<.<.<.<.<.<.<.<.<.<.<.<.<.",
"<.<.<.<.<.<.<.<.<.<.<.<.<.<.<.<.<.<.<.<.<.<.<.<.<.<.<.<.<.<.<.<.<.<.<.<.<.<.<.<.<.<.<.<.<.<.<.<.<.<.<.<.<.<.<.<.<.<.<.<.<.<.<.<.",
"<.<.<.<.<.<.<.<.<.<.<.<.<.<.<.<.<.<.<.<.<.<.<.<.<.<.<.<.<.<.<.<.<.<.<.<.<.<.<.<.<.<.<.<.<.<.<.<.<.<.<.<.<.<.<.<.<.<.<.<.<.<.<.<.",
"<.<.<.<.<.<.<.<.<.<.<.<.<.<.<.<.<.<.<.<.<.<.<.<.<.<.<.<.<.<.<.<.<.<.<.<.<.<.<.<.<.<.<.<.<.<.<.<.<.<.<.<.<.<.<.<.<.<.<.<.<.<.<.<.",
"<.<.<.<.<.<.<.<.<.<.<.<.<.<.<.<.<.<.<.<.<.<.<.<.<.<.<.<.<.<.<.<.<.<.<.<.<.<.<.<.<.<.<.<.<.<.<.<.<.<.<.<.<.<.<.<.<.<.<.<.<.<.<.<.",
"<.<.<.<.<.<.<.<.<.<.<.<.<.<.<.<.<.<.<.<.<.<.<.<.<.<.<.<.<.<.<.<.<.<.<.<.<.<.<.<.<.<.<.<.<.<.<.<.<.<.<.<.<.<.<.<.<.<.<.<.<.<.<.<.",
"<.<.<.<.<.<.<.<.<.<.<.<.<.<.<.<.<.<.<.<.<.<.<.<.<.<.<.<.<.<.<.<.<.<.<.<.<.<.<.<.<.<.<.<.<.<.<.<.<.<.<.<.<.<.<.<.<.<.<.<.<.<.<.<.",
"<.<.<.<.<.<.<.<.<.<.<.<.<.<.<.<.<.<.<.<.<.<.<.<.<.<.<.<.<.<.<.<.<.<.<.<.<.<.<.<.<.<.<.<.<.<.<.<.<.<.<.<.<.<.<.<.<.<.<.<.<.<.<.<.",
"<.<.<.<.<.<.<.<.<.<.<.<.<.<.<.<.<.<.<.<.<.<.<.<.<.<.<.<.<.<.<.<.<.<.<.<.<.<.<.<.<.<.<.<.<.<.<.<.<.<.<.<.<.<.<.<.<.<.<.<.<.<.<.<.",
"<.<.<.<.<.<.<.<.<.<.<.<.<.<.<.<.<.<.<.<.<.<.<.<.<.<.<.<.<.<.<.<.<.<.<.<.<.<.<.<.<.<.<.<.<.<.<.<.<.<.<.<.<.<.<.<.<.<.<.<.<.<.<.<.",
"<.<.<.<.<.<.<.<.<.<.<.<.<.<.<.<.<.<.<.<.<.<.<.<.<.<.<.<.<.<.<.<.<.<.<.<.<.<.<.<.<.<.<.<.<.<.<.<.<.<.<.<.<.<.<.<.<.<.<.<.<.<.<.<.",
"<.<.<.<.<.<.<.<.<.<.<.<.<.<.<.<.<.<.<.<.<.<.<.<.<.<.<.<.<.<.<.<.<.<.<.<.<.<.<.<.<.<.<.<.<.<.<.<.<.<.<.<.<.<.<.<.<.<.<.<.<.<.<.<.",
"<.<.<.<.<.<.<.<.<.<.<.<.<.<.<.<.<.<.<.<.<.<.<.<.<.<.<.<.<.<.<.<.<.<.<.<.<.<.<.<.<.<.<.<.<.<.<.<.<.<.<.<.<.<.<.<.<.<.<.<.<.<.<.<.",
"<.<.<.<.<.<.<.<.<.<.<.<.<.<.<.<.<.<.<.<.<.<.<.<.<.<.<.<.<.<.<.<.<.<.<.<.<.<.<.<.<.<.<.<.<.<.<.<.<.<.<.<.<.<.<.<.<.<.<.<.<.<.<.<.",
"<.<.<.<.<.<.<.<.<.<.<.<.<.<.<.<.<.<.<.<.<.<.<.<.<.<.<.<.<.<.<.<.<.<.<.<.<.<.<.<.<.<.<.<.<.<.<.<.<.<.<.<.<.<.<.<.<.<.<.<.<.<.<.<.",
"<.<.<.<.<.<.<.<.<.<.<.<.<.<.<.<.<.<.<.<.<.<.<.<.<.<.<.<.<.<.<.<.<.<.<.<.<.<.<.<.<.<.<.<.<.<.<.<.<.<.<.<.<.<.<.<.<.<.<.<.<.<.<.<.",
"<.<.<.<.<.<.<.<.<.<.X         X <.<.<.<.<.<.<.<.<.<.<.<.<.<.<.<.<.<.<.<.<.<.<.<.<.<.<.<.<.<.X         X <.<.<.<.<.<.<.<.<.<.<.<.",
"<.<.<.<.<.<.<.<.<.<.- : 1 , @ . <.<.<.<.<.<.<.<.<.<.<.<.<.<.<.<.<.<.<.<.<.<.<.<.<.<.<.<.<.<.. @ , 3 3 2 <.<.<.<.<.<.<.<.<.<.<.<.",
"<.<.<.<.<.<.<.<.X - 6 n ` / ,   .                                                         .   , / { { ) 2 X <.<.<.<.<.<.<.<.<.<.",
"<.<.<.<.<.<.<.<.  : n [ o.{ 3 o o + $ & * r r * & & * r r r r r r r r * & & * r r * & $ + o o 3 { %.%.{ 3   <.<.<.<.<.<.<.<.<.<.",
"<.<.<.<.<.<.<.<.  1 ` o.O.{ 3 o o $ 0 h v m m v h h v m m m m m m m m v h h v m m v h 0 $ o o 3 { %.%.{ 3   <.<.<.<.<.<.<.<.<.<.",
"<.<.<.<.<.<.<.<.  4  .&.&. .4 + $ e x F J I I H C C H I I I I I I I I H C C H I I J F x e $ + 4  .&.&. .4   <.<.<.<.<.<.<.<.<.<.",
"<.<.<.<.<.<.<.<.  N @.:.:.@.N $ 0 x L R E W W Y K K Y W W W W W W W W Y K K Y W W E R L x 0 $ N @.:.:.@.N   <.<.<.<.<.<.<.<.<.<.",
"<.<.<.<.<.<.<.<.  B *.,.,.*.B % y Z T ! ! ! ! Q U U Q ! ! ! ! ! ! ! ! Q U U Q ! ! ! ! T Z y % B *.,.,.*.B   <.<.<.<.<.<.<.<.<.<.",
"<.<.<.<.<.<.<.<.  B *.,.,.*.B % y Z T ! ! ! ! Q U U Q ! ! ! ! ! ! ! ! Q U U Q ! ! ! ! T Z y % B *.,.,.*.B   <.<.<.<.<.<.<.<.<.<.",
"<.<.<.<.<.<.<.<.  N @.:.:.@.N % y V P W W W W Y K K Y W W W W W W W W Y K K Y W W W W P V y % N @.:.:.@.N   <.<.<.<.<.<.<.<.<.<.",
"<.<.<.<.<.<.<.<.  4  .&.&. .4 % y c G I I I I H C C H I I I I I I I I H C C H I I I I G c y % 4  .&.&. .4   <.<.<.<.<.<.<.<.<.<.",
"<.<.<.<.<.<.<.<.  3 { %.%.{ 3 $ 0 j b D D D D A l l A S M m m m m M S A l l A D D D D b j 0 $ 3 { %.%.{ 3   <.<.<.<.<.<.<.<.<.<.",
"<.<.<.<.<.<.<.<.  3 { %.%.{ 3 + $ q j z z z z l g g l k t r r r r t k l g g l z z z z j q $ + 3 { %.%.{ 3   <.<.<.<.<.<.<.<.<.<.",
"<.<.<.<.<.<.<.<.  3 { %.%.{ 3 o o $ 0 y y y y y y y y i < 4 N B B s p y y y y y y y y 0 $ o o 3 { %.%.{ 3   <.<.<.<.<.<.<.<.<.<.",
"<.<.<.<.<.<.<.<.  3 { %.%.{ 3 o o + $ % % % % % % % % < (  .@.*.*.| s % % % % % % % % $ + o o 3 { %.%.{ 3   <.<.<.<.<.<.<.<.<.<.",
"<.<.<.<.<.<.<.<.  3 { %.%.{ 3 o o o o O # ; ; : 1 , @ 3 { &.:.,.,.*.B @ , 1 : ; ; # O o o o o 3 { %.%.{ 3   <.<.<.<.<.<.<.<.<.<.",
"<.<.<.<.<.<.<.<.  3 { %.%.{ 3 o o o o # 5 8 8 n ` / , 3 { &.:.,.,.*.B , / ` n 8 8 5 # o o o o 3 { %.%.{ 3   <.<.<.<.<.<.<.<.<.<.",
"<.<.<.<.<.<.<.<.  , / { { / , o o o o ; 8 ~ ~ ' X.{ 3 1 ` #.;.>.-...a 3 { X.' ~ ~ 8 ; o o o o , / { { / ,   <.<.<.<.<.<.<.<.<.<.",
"<.<.<.<.<.<.<.<.  @ , 3 3 , @ o o o o ; 8 ~ ~ ' X.{ 3 : n } =.-.+.^ > 3 { X.' ~ ~ 8 ; o o o o @ , 3 3 , @   <.<.<.<.<.<.<.<.<.<.",
"<.<.<.<.<.<.<.<.  O # ; ; # O o o o o # 5 8 8 n ` / , ; 8 ] $.$.] 8 ; , / ` n 8 8 5 # o o o o O # ; ; # O   <.<.<.<.<.<.<.<.<.<.",
"<.<.<.<.<.<.<.<.  # 5 8 8 5 # o o o o O # ; ; : 1 , @ ; 8 _ ] ] _ 8 ; @ , 1 : ; ; # O o o o o # 5 8 8 5 #   <.<.<.<.<.<.<.<.<.<.",
"<.<.<.<.<.<.<.<.  ; 8 ~ ~ 8 ; + $ % % % % % % & * * & = 7 8 8 8 8 7 = & * * & % % % % % % $ + ; 8 ~ ~ 8 ;   <.<.<.<.<.<.<.<.<.<.",
"<.<.<.<.<.<.<.<.  ; 8 ~ ~ 8 ; $ 0 y y y y y y h v v h w = ; ; ; ; = w h v v h y y y y y y 0 $ ; 8 ~ ~ 8 ;   <.<.<.<.<.<.<.<.<.<.",
"<.<.<.<.<.<.<.<.  ; 8 ~ ~ 8 ; % y f f f f f f z D D z u 9 % % % % 9 u z D D z f f f f f f y % ; 8 ~ ~ 8 ;   <.<.<.<.<.<.<.<.<.<.",
"<.<.<.<.<.<.<.<.  ; 8 ~ ~ 8 ; % y f f f f f f z D D z d u y y y y u d z D D z f f f f f f y % ; 8 ~ ~ 8 ;   <.<.<.<.<.<.<.<.<.<.",
"<.<.<.<.<.<.<.<.  ; 8 ~ ~ 8 ; $ 0 u d f f f f z D D z f f f f f f f f z D D z f f f f d u 0 $ ; 8 ~ ~ 8 ;   <.<.<.<.<.<.<.<.<.<.",
"<.<.<.<.<.<.<.<.  ; 8 ~ ~ 8 ; + $ 9 u f f f f z D D z f f f f f f f f z D D z f f f f u 9 $ + ; 8 ~ ~ 8 ;   <.<.<.<.<.<.<.<.<.<.",
"<.<.<.<.<.<.<.<.  # 5 8 8 5 # o o $ 0 y y y y h v v h y y y y y y y y h v v h y y y y 0 $ o o # 5 8 8 5 #   <.<.<.<.<.<.<.<.<.<.",
"<.<.<.<.<.<.<.<.  O # ; ; # O o o + $ % % % % & * * & % % % % % % % % & * * & % % % % $ + o o O # ; ; # O   <.<.<.<.<.<.<.<.<.<.",
"<.<.<.<.<.<.<.<.X                                                                                         X <.<.<.<.<.<.<.<.<.<.",
"<.<.<.<.<.<.<.<.<.<.<.<.<.<.<.<.<.<.<.<.<.<.<.<.<.<.<.<.<.<.<.<.<.<.<.<.<.<.<.<.<.<.<.<.<.<.<.<.<.<.<.<.<.<.<.<.<.<.<.<.<.<.<.<.",
"<.<.<.<.<.<.<.<.<.<.<.<.<.<.<.<.<.<.<.<.<.<.<.<.<.<.<.<.<.<.<.<.<.<.<.<.<.<.<.<.<.<.<.<.<.<.<.<.<.<.<.<.<.<.<.<.<.<.<.<.<.<.<.<.",
"<.<.<.<.<.<.<.<.<.<.<.<.<.<.<.<.<.<.<.<.<.<.<.<.<.<.<.<.<.<.<.<.<.<.<.<.<.<.<.<.<.<.<.<.<.<.<.<.<.<.<.<.<.<.<.<.<.<.<.<.<.<.<.<.",
"<.<.<.<.<.<.<.<.<.<.<.<.<.<.<.<.<.<.<.<.<.<.<.<.<.<.<.<.<.<.<.<.<.<.<.<.<.<.<.<.<.<.<.<.<.<.<.<.<.<.<.<.<.<.<.<.<.<.<.<.<.<.<.<.",
"<.<.<.<.<.<.<.<.<.<.<.<.<.<.<.<.<.<.<.<.<.<.<.<.<.<.<.<.<.<.<.<.<.<.<.<.<.<.<.<.<.<.<.<.<.<.<.<.<.<.<.<.<.<.<.<.<.<.<.<.<.<.<.<.",
"<.<.<.<.<.<.<.<.<.<.<.<.<.<.<.<.<.<.<.<.<.<.<.<.<.<.<.<.<.<.<.<.<.<.<.<.<.<.<.<.<.<.<.<.<.<.<.<.<.<.<.<.<.<.<.<.<.<.<.<.<.<.<.<.",
"<.<.<.<.<.<.<.<.<.<.<.<.<.<.<.<.<.<.<.<.<.<.<.<.<.<.<.<.<.<.<.<.<.<.<.<.<.<.<.<.<.<.<.<.<.<.<.<.<.<.<.<.<.<.<.<.<.<.<.<.<.<.<.<.",
"<.<.<.<.<.<.<.<.<.<.<.<.<.<.<.<.<.<.<.<.<.<.<.<.<.<.<.<.<.<.<.<.<.<.<.<.<.<.<.<.<.<.<.<.<.<.<.<.<.<.<.<.<.<.<.<.<.<.<.<.<.<.<.<.",
"<.<.<.<.<.<.<.<.<.<.<.<.<.<.<.<.<.<.<.<.<.<.<.<.<.<.<.<.<.<.<.<.<.<.<.<.<.<.<.<.<.<.<.<.<.<.<.<.<.<.<.<.<.<.<.<.<.<.<.<.<.<.<.<.",
"<.<.<.<.<.<.<.<.<.<.<.<.<.<.<.<.<.<.<.<.<.<.<.<.<.<.<.<.<.<.<.<.<.<.<.<.<.<.<.<.<.<.<.<.<.<.<.<.<.<.<.<.<.<.<.<.<.<.<.<.<.<.<.<.",
"<.<.<.<.<.<.<.<.<.<.<.<.<.<.<.<.<.<.<.<.<.<.<.<.<.<.<.<.<.<.<.<.<.<.<.<.<.<.<.<.<.<.<.<.<.<.<.<.<.<.<.<.<.<.<.<.<.<.<.<.<.<.<.<.",
"<.<.<.<.<.<.<.<.<.<.<.<.<.<.<.<.<.<.<.<.<.<.<.<.<.<.<.<.<.<.<.<.<.<.<.<.<.<.<.<.<.<.<.<.<.<.<.<.<.<.<.<.<.<.<.<.<.<.<.<.<.<.<.<.",
"<.<.<.<.<.<.<.<.<.<.<.<.<.<.<.<.<.<.<.<.<.<.<.<.<.<.<.<.<.<.<.<.<.<.<.<.<.<.<.<.<.<.<.<.<.<.<.<.<.<.<.<.<.<.<.<.<.<.<.<.<.<.<.<.",
"<.<.<.<.<.<.<.<.<.<.<.<.<.<.<.<.<.<.<.<.<.<.<.<.<.<.<.<.<.<.<.<.<.<.<.<.<.<.<.<.<.<.<.<.<.<.<.<.<.<.<.<.<.<.<.<.<.<.<.<.<.<.<.<.",
"<.<.<.<.<.<.<.<.<.<.<.<.<.<.<.<.<.<.<.<.<.<.<.<.<.<.<.<.<.<.<.<.<.<.<.<.<.<.<.<.<.<.<.<.<.<.<.<.<.<.<.<.<.<.<.<.<.<.<.<.<.<.<.<.",
"<.<.<.<.<.<.<.<.<.<.<.<.<.<.<.<.<.<.<.<.<.<.<.<.<.<.<.<.<.<.<.<.<.<.<.<.<.<.<.<.<.<.<.<.<.<.<.<.<.<.<.<.<.<.<.<.<.<.<.<.<.<.<.<.",
"<.<.<.<.<.<.<.<.<.<.<.<.<.<.<.<.<.<.<.<.<.<.<.<.<.<.<.<.<.<.<.<.<.<.<.<.<.<.<.<.<.<.<.<.<.<.<.<.<.<.<.<.<.<.<.<.<.<.<.<.<.<.<.<.",
"<.<.<.<.<.<.<.<.<.<.<.<.<.<.<.<.<.<.<.<.<.<.<.<.<.<.<.<.<.<.<.<.<.<.<.<.<.<.<.<.<.<.<.<.<.<.<.<.<.<.<.<.<.<.<.<.<.<.<.<.<.<.<.<."
};
