/* XPM */
static char *result[] = {
/* columns rows colors chars-per-pixel */
"64 64 108 2 ",
"   c #24213F",
".  c #33233F",
"X  c #252243",
"o  c #2C2241",
"O  c #26244A",
"+  c #29244A",
"@  c #272B4B",
"#  c #292B4E",
"$  c #342441",
"%  c #382744",
"&  c #31264A",
"*  c #36294D",
"=  c #272750",
"-  c #2B2752",
";  c #272851",
":  c #292C52",
">  c #2A2C5E",
",  c #2C3255",
"<  c #2D3559",
"1  c #303B5D",
"2  c #2B2D62",
"3  c #2C3165",
"4  c #2E346B",
"5  c #2F386D",
"6  c #313D61",
"7  c #303B6E",
"8  c #2F3671",
"9  c #2F3872",
"0  c #3C3476",
"q  c #313D72",
"w  c #3D347B",
"e  c #532742",
"r  c #5B2842",
"t  c #632B44",
"y  c #6A2D46",
"u  c #712F46",
"i  c #643147",
"p  c #723047",
"a  c #76344A",
"s  c #78344A",
"d  c #40367E",
"f  c #403A7B",
"g  c #324176",
"h  c #34437A",
"j  c #35487E",
"k  c #3B5379",
"l  c #3F597F",
"z  c #774154",
"x  c #834555",
"c  c #894455",
"v  c #8D4857",
"b  c #8D4958",
"n  c #924D5A",
"m  c #96525E",
"M  c #99525F",
"N  c #433D82",
"B  c #443988",
"V  c #483F8C",
"C  c #364984",
"Z  c #384987",
"A  c #394C8B",
"S  c #3F5A81",
"D  c #3B508F",
"F  c #3C5393",
"G  c #3E5997",
"H  c #3F5B9A",
"J  c #4B4484",
"K  c #49418D",
"L  c #50478F",
"P  c #51488F",
"I  c #405C82",
"U  c #4C4591",
"Y  c #524990",
"T  c #405D9C",
"R  c #436187",
"E  c #436289",
"W  c #476A91",
"Q  c #486B93",
"!  c #41609F",
"~  c #4263A2",
"^  c #4468A7",
"/  c #5F61A6",
"(  c #4A77B2",
")  c #4B7AB6",
"_  c #4D7FBA",
"`  c #6061A7",
"'  c #6466AC",
"]  c #6669AF",
"[  c #6C6EAE",
"{  c #6A6EB2",
"}  c #7476B3",
"|  c #7578B5",
" . c #7E7FB8",
".. c #4D81BD",
"X. c #5087C3",
"o. c #528BC7",
"O. c #528CC8",
"+. c #8D8AB7",
"@. c #8F8BBA",
"#. c #9592BB",
"$. c #9893BC",
"%. c #9E9ABE",
"&. c #A09CBF",
"*. c #9B9AC1",
"=. c #A19CC0",
"-. c #A5A2C5",
";. c #AEAAC8",
":. c #B1ADC9",
/* pixels */
"Q Q Q Q Q Q Q Q Q Q W Q Q Q Q Q Q Q Q Q Q Q Q Q Q Q Q Q Q Q Q Q Q Q Q Q Q Q Q Q Q Q Q Q Q Q Q Q Q Q Q Q Q W Q Q Q Q Q Q Q Q Q Q ",
"Q Q Q Q Q Q Q Q W Q Q Q Q Q Q Q Q Q Q Q Q Q Q Q Q Q Q Q Q Q Q Q Q Q Q Q Q Q Q Q Q Q Q Q Q Q Q Q Q Q Q Q Q Q Q Q Q Q W Q Q Q Q Q ",
"Q Q Q W Q W Q Q Q Q Q Q Q Q Q Q Q Q Q Q Q Q Q Q Q Q Q Q Q Q Q Q Q Q Q Q Q Q Q Q Q Q Q Q Q Q Q Q Q Q W Q Q Q Q Q W Q Q Q Q Q W Q ",
"Q Q Q Q Q Q Q Q Q Q Q Q Q Q Q W Q Q Q Q Q Q Q Q Q E E E R E E R E E E E E E Q Q Q Q Q Q Q Q Q Q Q Q Q Q Q Q W Q Q Q Q Q Q Q Q Q ",
"Q Q Q Q W Q Q Q Q Q Q W Q Q Q W Q Q Q Q Q E W E I , # # # # : @ : # # # # , l E W E Q Q Q Q Q Q Q W Q Q Q Q Q Q W Q Q Q Q Q W Q ",
"Q Q Q Q Q Q Q W Q Q Q Q Q Q Q Q Q Q Q E S 6 k < , 7 q q q 9 2 X > 7 g 9 g 7 , < k 1 l E Q Q Q Q Q Q Q Q Q W Q Q Q Q Q Q Q Q Q Q ",
"Q Q Q Q Q Q Q Q Q Q Q Q Q Q Q Q Q E l , ; > ; > 5 _ O.O.O...5 X 7 ..O.o.O._ 5 > : > ; < S E Q Q Q Q Q Q Q Q Q Q Q Q Q Q Q Q Q Q ",
"W Q Q Q Q Q Q Q Q W Q Q Q Q Q Q S , : 5 q 2 O > 9 H ! ! ~ H 4 O 4 H ~ ! ~ H 4 > O 3 q 5 ; , S W Q Q W Q Q Q Q W Q Q Q Q W Q Q Q ",
"Q Q Q Q Q Q Q Q Q Q Q Q Q Q Q I < 5 j ....C < = 2 A F F F A 3 O 3 A F F F Z 4 + 2 C ....C 4 < S Q Q Q Q Q Q Q Q Q Q Q Q Q Q Q Q ",
"Q Q Q W Q Q Q Q Q Q Q Q Q E l < h ..X.~ ^ ) 9 O 2 8 A A A A 3 O 3 A A A Z 8 > O 9 ) ^ ~ X.X.g < I E Q Q Q Q Q Q Q Q Q Q W Q Q Q ",
"Q W Q Q W Q Q W Q Q Q Q S < - j ) ^ T F F G 5 > + 2 4 4 8 4 > O 2 4 4 8 4 2 # > 5 G F F H ^ ) j : < S Q Q Q Q Q Q Q Q Q Q W Q Q ",
"Q Q Q Q Q Q Q Q Q W Q I < - 5 ( ~ F F F F Z 4 2 X O > 2 2 2 O X O > 2 2 2 > O > 4 Z F F F D ^ ( 5 > < I Q Q Q Q Q W Q Q Q Q Q Q ",
"Q Q Q W Q W Q Q Q Q E < ; ; 3 h A F F F A 9 > O X X X X X O     X O O X O X X O 2 9 A F F F A h 3 ; ; < E Q Q Q Q Q Q Q Q Q Q Q ",
"Q Q Q Q Q Q Q Q Q Q l : q 9 = > 9 Z A A 4 > O   X . o o o o   X       .   . o   O > 8 A D Z 9 ; + 9 q : S Q Q Q Q Q Q Q Q Q Q Q ",
"W Q Q Q Q Q Q Q Q W , 4 ....h = 2 4 4 4 2 O   X o r t t r . X X X $ r t t r o   X X 2 4 4 4 2 # g X...4 , E Q Q Q Q Q W Q Q W Q ",
"Q Q Q Q Q Q Q Q Q l , g H ^ ) h ; > 3 > O   o X $ t p y y e o   . r y u p t $ X X   O > 2 2 ; h ) ^ H g : S Q Q W Q Q Q Q Q Q Q ",
"Q Q W Q Q Q Q Q E , 5 ( H F ~ ( 5 O O O   . X   r a v v a t o X o t a v v a r o X o   O X O 7 ( ^ D H ( 4 , E Q Q Q Q Q Q Q Q Q ",
"Q Q Q Q Q Q Q Q S # 4 F F F F F 4 O     . e o o y v m m c y o X o y v m m b t o . e $     O 4 F F F G F 4 # S Q Q Q Q Q Q Q Q Q ",
"Q Q Q Q Q Q Q E , 2 4 8 Z D Z 8 > O   $ t t o o i n m m n i o X o y n m m n y o o t t .   O > 8 A D Z 9 4 > < E Q Q Q Q Q Q Q Q ",
"Q W Q Q Q Q Q E < > 2 3 4 8 8 2 O   . r y t o o y n m m n y o X o y n m m n i o o t y r .   O > 4 8 4 2 2 > < E Q Q Q Q Q Q Q Q ",
"Q Q Q Q Q Q Q Q k - O ; > > > O X o r p y t .   y n m m n i X   o y n m M n y o o t y u r o X O > 2 2 = O ; k W Q Q Q Q Q Q Q Q ",
"W Q Q Q Q Q Q E < > > ; O O O   X $ y c s t . . i n m m n t .   o y n m n n i o o t a c y . X X O O = ; 2 > < E Q W Q Q W Q Q Q ",
"Q Q Q Q Q Q Q E # 3 h h q > O   o r a b b y   o y n m m n y . X o i n m m n t o o y v n a r o X O > 7 h h 2 # R Q Q Q Q Q W Q Q ",
"Q Q Q Q Q Q Q E : 4 _ O._ C > O   y v m n y o o y n m m n i   X o y b m m n y o o y n M v y o X > C ..O._ 4 # E Q Q Q Q Q Q Q Q ",
"Q Q W Q Q Q Q E # 4 T ! ^ ) 7   . y m m n y o o i n m m n y o X . y n M m n y o o y n m n y o   q ( ~ ~ H 4 # R Q Q Q Q Q Q Q Q ",
"Q Q Q Q Q Q Q E # 3 A F F T 4 O   t b M b t o o t b M M b t o X + r v M M b t o o t v m b i o X 4 H F F A 3 # R Q Q Q Q Q Q Q Q ",
"Q Q Q Q Q Q Q E # 3 D F F A 3 X   . i x i . o   $ i x x y . X X o . y x x y $ X   $ y x i $   O 3 A F G F 3 - R Q Q Q Q Q Q Q Q ",
"W Q Q Q Q Q Q E : 3 A A A A 3 O   + + * & O + + + & * * + + + + O + + * * + O O X + + * + +   O 3 A A A Z 3 # R Q Q Q Q Q Q Q Q ",
"Q Q Q Q Q W Q E # 2 4 8 4 4 > X # d N N N N B N N N N N N N N N N N N J J N J J J J J N f d # X 2 4 8 8 4 2 # E Q Q Q Q Q Q Q Q ",
"Q Q Q Q Q Q Q E < > 2 2 2 2 O O f ` ] ] ' ' ' ' ' ' ' ] ' ' ' ] ' ' ' { +.} $.=.*.=.$.{ ' ` d + O > 2 2 2 > < E Q Q Q W Q Q Q Q ",
"Q Q Q W Q Q Q W k : O O O O   + N ] [ { { { { { { { { { { { { { { { ] | *. .-.:.;.:.-.} { { N +   O O O O # k Q Q Q Q Q Q Q Q Q ",
"Q Q Q Q Q Q Q E < > q q q 7 O + N ` { { { { { { { { { { { { { { { { ] | *. .-.:.;.:.-.} { ` N O O 7 q q q 3 < E Q Q Q Q Q Q Q Q ",
"Q Q Q Q Q Q Q R @ 8 _ O.O._ 5 + f K ` ' ` ' ' ` ' ' ' ' ' ' ' ' ' ' ' [ +.} $.&.%.%.$.[ / U d + 5 _ O.o._ 4 # R Q W Q Q Q Q Q Q ",
"Q Q Q Q Q Q Q R ; 3 H ~ ! H 4 + 0 B K K K K K V K K K K K K K K K K K K K K P P P L L K V B 0 + 4 H ~ ! H 4 # E Q Q Q Q Q Q Q Q ",
"Q Q Q Q Q Q Q E : 3 A F F A 3 X # 0 w w f d d d 0 w w w w w d 0 w w w w w w w w w w w w w 0 + X 4 A F F A 3 # R Q Q Q Q Q Q Q Q ",
"Q Q Q Q Q Q Q R : 3 D G F D 4 O X + & & & + # + + & & & & + + + O + & * & & + + + + & % & O X O 3 D F F F 3 # R Q Q Q Q Q Q Q Q ",
"Q Q Q Q Q Q Q E @ 3 A A A A 4 X   $ r t r .     . r t r r .       . r r t r .     . r t r .   O 4 Z A F Z 3 # R Q Q W Q Q Q Q W ",
"Q Q Q Q Q Q Q E ; 2 8 4 4 4 > X . e u u y r   o r y p u y r   X . r y u p y r . o r y u u r   X 2 4 4 4 8 2 # R Q Q Q Q Q Q Q Q ",
"Q Q Q W Q Q Q E < > 2 2 2 > O   o t a c a t o . t p v v a t o   o t a v v p t   o t p c a t o X O > > > 2 > < E Q Q Q Q W Q Q Q ",
"Q Q Q Q Q Q Q Q k ; X O O X X X o y v n v t o . y v M M v i o   o y b m m v y . o y v M v t o X X O O O O - k W Q Q Q Q Q Q Q Q ",
"Q W Q Q Q Q Q E < > 9 g g 5 @   o y n m n i + . y n m m n y . X . y n m m n y o o y n m n i o   @ 9 q q q > < E Q Q Q Q Q Q Q Q ",
"Q Q Q Q Q W Q E # 5 ..O.O.) 5 X . y n M n y o o i n m m n y   X   y n m m n i + o y n m n y o O 4 _ O.o...5 # R Q Q Q Q Q Q Q Q ",
"Q Q Q Q Q Q Q E ; 4 H ~ ! G 4 X o y n m n y o o y n m m n y & X o i n m m n y o + y n M n y . X 4 T ~ ~ H 3 # E Q Q Q Q Q Q Q Q ",
"Q Q Q W Q Q Q E # 4 A F F D 3 O o r v m v r o o t b M m b r o X o t b M M v t o   t v M b r o X 3 A F F A 3 # R Q Q Q Q Q Q Q Q ",
"Q Q Q Q Q W Q E # 3 F F F A 3 O X . t x i . o   $ y x x i . X   X $ y x x i $     $ t x t $   O 3 D F F D 3 # R Q Q Q Q Q Q Q Q ",
"Q W Q Q Q Q Q E # 3 A F F D 3 X   O & * # + O + O & * * & O + + + + & * * + O + + + & * + O   X 4 D G F D 3 : R Q Q Q Q Q Q Q Q ",
"Q Q Q Q Q W Q E - 3 A A F A 3 O # d N N N B N N N N N N f N N N N N N N J N J J J J J N N f - + 3 Z A D A 2 # E Q Q Q Q Q Q Q Q ",
"Q Q Q Q Q Q Q R # 2 8 4 8 4 > + f ` ] ' ' ' ' ' ' ' ' { ' ' ' ' ' ' ' [ +.} $.=.&.&.$.[ ' ` f + 2 8 8 4 8 2 # E Q Q Q Q Q Q Q Q ",
"Q Q W Q Q Q Q E 1 > 2 2 2 > O + N ' { { { { { { { { { { { { { { { { { | *.| =.:.;.:.-.} { { f O O > 2 > 2 > < E Q Q Q Q Q Q Q Q ",
"Q Q Q Q Q Q Q Q k # X + + X   + N ` { { { { { { { { { { { [ { { { { { | *.+.-.:.;.:.-.} { ` N +   O O O O : k W Q Q Q Q Q Q Q W ",
"Q Q Q Q Q Q Q E < > q g g 7 O + d U ` ' ' ' ' ' ' ' ' ' ' ' ' ' ' ' ` { +.} #.&.%.%.$.[ / U d + O 5 q q q > < E Q Q Q Q Q Q Q Q ",
"W Q Q Q Q Q Q E # 4 ..o.o.) 4 + 0 B K K K K K K K K K K K K K K K K K K L K L L Y Y L V V B 0 O 5 _ O.o._ 5 # R Q Q Q Q Q Q Q Q ",
"Q Q Q Q Q W Q E # 3 T ~ ~ T 3 O + 0 w w w w w w w w w w w w w w w w w w w w w w w w w w w 0 # O 4 T ~ ~ H 3 # E Q Q Q Q Q Q Q Q ",
"Q Q Q Q Q W Q E # 3 A A A Z 2 O   O & & & @ @ @ @ & % & & + O O + + & * & & + + + + & & # @   o 3 Z A A Z 3 # E Q W Q Q W Q Q Q ",
"Q Q Q W Q Q Q E < > 3 3 3 3 O     . r t r .     . r t t r .       . r r t r .     . r t r .     O 3 3 3 3 > < E Q Q Q Q Q W Q Q ",
"Q Q Q Q Q Q Q W k : X O O O   X . r u u y r o o r y u u y r .   . r y u u y e o . r u y y r o X   O O O O : k W Q Q Q Q Q Q Q Q ",
"Q Q Q Q Q Q Q E < > 4 g q 3 @ X . r s b a r o o r z b b a r . X . e a b b s r o . r s b a r . X + 3 q g 4 > 1 E Q Q Q Q Q Q Q Q ",
"Q Q Q Q Q Q Q l # 3 A ....A > o   % z b z %   X % z b b z % X X   % z b b z % X   % z b z %   O > A ....A 2 @ l Q Q Q Q Q Q Q Q ",
"Q Q Q Q Q Q I # O > 3 q q 3 O       @ % %     X X . % $ $   X       $ % % . X       . % $ X     + 3 q q 4 > O # I Q Q Q Q Q Q Q ",
"Q Q Q Q Q W 1 @ @ # : # # # # @ @ @ @ @ @ @ @ @ @ @ @ @ @ @ @ @ # # @ @ @ @ # # # # @ # @ @ @ @ @ # # # # : # # 6 E Q Q Q Q Q Q ",
"Q Q Q Q Q W E E E E R E R E E E E E E E E E E E E E E E E E E E E E E E E E E E E E E E E E E E E E E E E E E E I W Q Q Q Q Q Q ",
"Q Q Q Q Q Q Q Q Q Q Q Q Q Q Q Q Q Q Q Q Q Q Q Q Q Q Q Q Q Q Q Q Q Q Q Q Q Q Q Q Q Q Q Q Q Q Q Q Q Q Q Q Q Q Q Q Q Q Q Q Q Q Q Q ",
"Q Q Q Q Q Q Q Q Q Q Q Q Q Q Q Q Q Q Q Q Q Q Q Q Q Q Q Q Q Q Q Q Q Q Q Q Q Q Q Q Q Q Q Q Q Q Q Q Q Q Q Q Q Q Q Q Q Q Q Q Q Q Q Q ",
"Q Q Q Q Q Q Q Q Q Q Q Q Q Q Q Q Q Q Q Q Q Q Q Q Q Q Q Q Q Q Q Q Q Q Q Q Q Q Q Q Q Q Q Q Q Q Q Q Q Q Q Q Q Q Q Q Q Q Q W Q Q Q Q "
};
