/* XPM */
static char *result[] = {
/* columns rows colors chars-per-pixel */
"64 64 10 1 ",
"  c #252241",
". c #2C3068",
"X c #6C2B44",
"o c #96515E",
"O c #433986",
"+ c #3C5393",
"@ c #696DB1",
"# c #5CA6E1",
"$ c #ADA9C7",
"% c None",
/* pixels */
"%%%%%%%%%%%%%%%%%%%%%%%%%%%%%%%%%%%%%%%%%%%%%%%%%%%%%%%%%%%%%%%%",
"%%%%%%%%%%%%%%%%%%%%%%%%%%%%%%%%%%%%%%%%%%%%%%%%%%%%%%%%%%%%%%%%",
"%%%%%%%%%%%%%%%%%%%%%%%%%%%%%%%%%%%%%%%%%%%%%%%%%%%%%%%%%%%%%%%%",
"%%%%%%%%%%%%%%%%%%%%%%%%%%%%%%%%%%%%%%%%%%%%%%%%%%%%%%%%%%%%%%%%",
"%%%%%%%%%%%%%%%%%%%%%%%%%             %%%%%%%%%%%%%%%%%%%%%%%%%%",
"%%%%%%%%%%%%%%%%%%%%% %  ...... ......  % %%%%%%%%%%%%%%%%%%%%%%",
"%%%%%%%%%%%%%%%%%%%  . ..#####. .#####.. .  %%%%%%%%%%%%%%%%%%%%",
"%%%%%%%%%%%%%%%%%  ... ..+++++. .+++++.. ...  %%%%%%%%%%%%%%%%%%",
"%%%%%%%%%%%%%%%% ..##.. .+++++. .+++++. ..##.. %%%%%%%%%%%%%%%%%",
"%%%%%%%%%%%%%%% .##++#. ..++++. .++++.. .#++##. %%%%%%%%%%%%%%%%",
"%%%%%%%%%%%%%  .#+++++.. ...... ...... ..+++++#.  %%%%%%%%%%%%%%",
"%%%%%%%%%%%% ..#++++++..  ....   ..... ..++++++#.. %%%%%%%%%%%%%",
"%%%%%%%%%%% . ..+++++..                 ..+++++.. . %%%%%%%%%%%%",
"%%%%%%%%%%% .. ..+++..                   ..+++.. .. %%%%%%%%%%%%",
"%%%%%%%%%% .##. .....    XXXX     XXXX    ..... .##. %%%%%%%%%%%",
"%%%%%%%%%% .++#. ...     XXXXX   XXXXX     ... .#++. %%%%%%%%%%%",
"%%%%%%%%% .#+++#.       XXooXX   XXooXX       .#+++#. %%%%%%%%%%",
"%%%%%%%%% .+++++.    X  XooooX   XooooX  X    .+++++. %%%%%%%%%%",
"%%%%%%%% ...+++..   XX  XooooX   XooooX  XX   ..+++... %%%%%%%%%",
"%%%%%%%% .......   XXX  XooooX   XooooX  XXX   ....... %%%%%%%%%",
"%%%%%%%%%   ...   XXXX  XooooX   XooooX  XXXX   ...   %%%%%%%%%%",
"%%%%%%%% ...      XoXX  XooooX   XooooX  XXoX      ... %%%%%%%%%",
"%%%%%%%% .....   XXooX  XooooX   XooooX  XooXX   ..... %%%%%%%%%",
"%%%%%%%% .###..  XoooX  XooooX   XooooX  XoooX  ..###. %%%%%%%%%",
"%%%%%%%% .+++#.  XoooX  XooooX   XooooX  XoooX  .#+++. %%%%%%%%%",
"%%%%%%%% .++++.  XoooX  XooooX   XooooX  XoooX  .++++. %%%%%%%%%",
"%%%%%%%% .++++.   XoX    XooX     XooX    XoX   .++++. %%%%%%%%%",
"%%%%%%%% .++++.                                 .++++. %%%%%%%%%",
"%%%%%%%% ......  OOOOOOOOOOOOOOOOOOOOOOOOOOOOO  ...... %%%%%%%%%",
"%%%%%%%% .....  O@@@@@@@@@@@@@@@@@@@$@$$$$$@@@O  ..... %%%%%%%%%",
"%%%%%%%%%       O@@@@@@@@@@@@@@@@@@@$@$$$$$@@@O       %%%%%%%%%%",
"%%%%%%%% .....  O@@@@@@@@@@@@@@@@@@@$@$$$$$@@@O  ..... %%%%%%%%%",
"%%%%%%%% .####. OO@@@@@@@@@@@@@@@@@@$@$$$$$@@OO .####. %%%%%%%%%",
"%%%%%%%% .++++. OOOOOOOOOOOOOOOOOOOOOOOOOOOOOOO .++++. %%%%%%%%%",
"%%%%%%%% .++++.  OOOOOOOOOOOOOOOOOOOOOOOOOOOOO  .++++. %%%%%%%%%",
"%%%%%%%% .++++.                                 .++++. %%%%%%%%%",
"%%%%%%%% .++++.   XXX    XXXX     XXXX    XXX   .++++. %%%%%%%%%",
"%%%%%%%% ......  XXXXX  XXXXXX   XXXXXX  XXXXX  ...... %%%%%%%%%",
"%%%%%%%% .....   XXoXX  XXooXX   XXooXX  XXoXX   ..... %%%%%%%%%",
"%%%%%%%%%        XoooX  XooooX   XooooX  XoooX        %%%%%%%%%%",
"%%%%%%%% .....   XoooX  XooooX   XooooX  XoooX   ..... %%%%%%%%%",
"%%%%%%%% .####.  XoooX  XooooX   XooooX  XoooX  .####. %%%%%%%%%",
"%%%%%%%% .++++.  XoooX  XooooX   XooooX  XoooX  .++++. %%%%%%%%%",
"%%%%%%%% .++++.  XoooX  XooooX   XooooX  XoooX  .++++. %%%%%%%%%",
"%%%%%%%% .++++.   XoX    XooX     XooX    XoX   .++++. %%%%%%%%%",
"%%%%%%%% .++++.                                 .++++. %%%%%%%%%",
"%%%%%%%% .++++.  OOOOOOOOOOOOOOOOOOOOOOOOOOOOO  .++++. %%%%%%%%%",
"%%%%%%%% ...... O@@@@@@@@@@@@@@@@@@@$@$$$$$@@@O ...... %%%%%%%%%",
"%%%%%%%% .....  O@@@@@@@@@@@@@@@@@@@$@$$$$$@@@O  ..... %%%%%%%%%",
"%%%%%%%%%       O@@@@@@@@@@@@@@@@@@@$@$$$$$@@@O       %%%%%%%%%%",
"%%%%%%%% .....  OO@@@@@@@@@@@@@@@@@@$@$$$$$@@OO  ..... %%%%%%%%%",
"%%%%%%%% .####. OOOOOOOOOOOOOOOOOOOOOOOOOOOOOOO .####. %%%%%%%%%",
"%%%%%%%% .++++.  OOOOOOOOOOOOOOOOOOOOOOOOOOOOO  .++++. %%%%%%%%%",
"%%%%%%%% .++++.                                 .++++. %%%%%%%%%",
"%%%%%%%% .....    XXX    XXXX     XXXX    XXX    ..... %%%%%%%%%",
"%%%%%%%%%        XXXXX  XXXXXX   XXXXXX  XXXXX        %%%%%%%%%%",
"%%%%%%%% .....   XXoXX  XXooXX   XXooXX  XXoXX   ..... %%%%%%%%%",
"%%%%%%%% .+##+.   ooo    oooo     oooo    ooo   .+##+. %%%%%%%%%",
"%%%%%%%  .....                                   .....  %%%%%%%%",
"%%%%%%                                                   %%%%%%%",
"%%%%%%%%%%%%%%%%%%%%%%%%%%%%%%%%%%%%%%%%%%%%%%%%%%%%%%%%%%%%%%%%",
"%%%%%%%%%%%%%%%%%%%%%%%%%%%%%%%%%%%%%%%%%%%%%%%%%%%%%%%%%%%%%%%%",
"%%%%%%%%%%%%%%%%%%%%%%%%%%%%%%%%%%%%%%%%%%%%%%%%%%%%%%%%%%%%%%%%",
"%%%%%%%%%%%%%%%%%%%%%%%%%%%%%%%%%%%%%%%%%%%%%%%%%%%%%%%%%%%%%%%%"
};
