/* XPM */
static char *result[] = {
/* columns rows colors chars-per-pixel */
"64 64 223 2 ",
"   c #050406",
".  c #1C0201",
"X  c #1B0A02",
"o  c #180605",
"O  c #061905",
"+  c #161507",
"@  c #080C11",
"#  c #1A1717",
"$  c #220501",
"%  c #240B01",
"&  c #2A0D02",
"*  c #240A09",
"=  c #290F09",
"-  c #2C1204",
";  c #2D160A",
":  c #291A06",
">  c #321504",
",  c #341B05",
"<  c #341B0A",
"1  c #3B1E0A",
"2  c #371B07",
"3  c #271718",
"4  c #321A12",
"5  c #042C04",
"6  c #092F0E",
"7  c #082706",
"8  c #1A2A07",
"9  c #063204",
"0  c #0A340C",
"q  c #0B3C0A",
"w  c #093A05",
"e  c #0B3411",
"r  c #1A3512",
"t  c #282804",
"y  c #392E02",
"u  c #3C220B",
"i  c #352509",
"p  c #293A0C",
"a  c #3C340C",
"s  c #373308",
"d  c #2B2217",
"f  c #392516",
"g  c #2C3D11",
"h  c #3A3614",
"j  c #1F1F23",
"k  c #271C24",
"l  c #17382F",
"z  c #143628",
"x  c #183C33",
"c  c #2F2724",
"v  c #302726",
"b  c #393725",
"n  c #2A2B36",
"m  c #383A36",
"M  c #303036",
"N  c #401F0B",
"B  c #452A0E",
"V  c #4D290E",
"C  c #43240C",
"Z  c #423A0C",
"A  c #41360A",
"S  c #472711",
"D  c #532D12",
"F  c #423413",
"G  c #453618",
"H  c #493914",
"J  c #593615",
"K  c #562E0E",
"L  c #623D19",
"P  c #623A16",
"I  c #433B27",
"U  c #5B3921",
"Y  c #0E410E",
"T  c #0E4D0A",
"R  c #0F4510",
"E  c #124512",
"W  c #144C14",
"Q  c #194D19",
"!  c #165316",
"~  c #185519",
"^  c #1A5B1A",
"/  c #175219",
"(  c #124E0F",
")  c #2F4B17",
"_  c #2E4A16",
"`  c #3B4813",
"'  c #186B11",
"]  c #1C4535",
"[  c #154120",
"{  c #3A4136",
"}  c #28522A",
"|  c #296C26",
" . c #316829",
".. c #2B742C",
"X. c #2F792F",
"o. c #39762D",
"O. c #2F7833",
"+. c #2D7631",
"@. c #337F33",
"#. c #397834",
"$. c #45410D",
"%. c #4B4415",
"&. c #4D451B",
"*. c #534C1C",
"=. c #514819",
"-. c #59531E",
";. c #68481D",
":. c #7D5E17",
">. c #584E22",
",. c #5A5423",
"<. c #585925",
"1. c #464836",
"2. c #5B4D3B",
"3. c #5B563B",
"4. c #655D2B",
"5. c #645825",
"6. c #67502C",
"7. c #427F35",
"8. c #496732",
"9. c #6A632D",
"0. c #776C38",
"q. c #766E35",
"w. c #31354A",
"e. c #30384C",
"r. c #24454E",
"t. c #254A47",
"y. c #3B4449",
"u. c #284A55",
"i. c #3A4C59",
"p. c #394B56",
"a. c #36515E",
"s. c #384C69",
"d. c #2F5161",
"f. c #315365",
"g. c #33546A",
"h. c #3B556B",
"j. c #3D5D7C",
"k. c #395673",
"l. c #48515A",
"z. c #4D5250",
"x. c #5F655A",
"c. c #716944",
"v. c #435D7A",
"b. c #445B75",
"n. c #4D5C66",
"m. c #55626D",
"M. c #48627C",
"N. c #5A6A75",
"B. c #5F707F",
"V. c #656A70",
"C. c #896927",
"Z. c #97742D",
"A. c #867A3C",
"S. c #836837",
"D. c #A07E36",
"F. c #8D7551",
"G. c #8E7F5E",
"H. c #8D764F",
"J. c #1F840F",
"K. c #258A1A",
"L. c #299718",
"P. c #2DA41A",
"I. c #348134",
"U. c #3B8639",
"Y. c #3E9333",
"T. c #43923C",
"R. c #46AE2A",
"E. c #4AAB32",
"W. c #55B638",
"Q. c #54BA34",
"!. c #5BAA36",
"~. c #79A62D",
"^. c #59C233",
"/. c #66D13B",
"(. c #4C9348",
"). c #4C9646",
"_. c #529C4A",
"`. c #7DBB47",
"'. c #75BD53",
"]. c #55A844",
"[. c #6BD340",
"{. c #A48138",
"}. c #988753",
"|. c #AD8B43",
" X c #AB8D4D",
".X c #A78B4C",
"XX c #B59757",
"oX c #AA8F56",
"OX c #9B8960",
"+X c #A58B64",
"@X c #A99467",
"#X c #B59E6C",
"$X c #BCA26A",
"%X c #C2A66B",
"&X c #C6AC74",
"*X c #CCB47C",
"=X c #C6B07A",
"-X c #D1B87C",
";X c #90D34D",
":X c #3E5E82",
">X c #3F6282",
",X c #425D82",
"<X c #446285",
"1X c #45668C",
"2X c #47688E",
"3X c #476A92",
"4X c #486B93",
"5X c #4B6F9A",
"6X c #4B719C",
"7X c #5A7087",
"8X c #6A7A88",
"9X c #4C74A0",
"0X c #77838E",
"qX c #7D8E9C",
"wX c #889AA8",
"eX c #9CAEBB",
"rX c #D5BC81",
"tX c #CAB381",
"yX c #DCC386",
"uX c #E5CB8F",
"iX c #ABBFCF",
"pX c #B5C8D7",
"aX c #BED2E1",
/* pixels */
"4X4X4X4X4X4X4X3X4X4X4X4X4X4X4X4X4X4X4X4X4X4X4X4X4X4X4X4X4X4X4X4X4X4X4X4X4X4X4X4X4X4X4X4X4X4X4X4X4X4X4X4X4X4X4X4X4X4X4X4X4X4X4X4X",
"4X4X4X4X4X4X4X4X4X4X4X4X4X4X4X4X4X4X4X4X4X4X4X4X4X4X3X4X4X4X4X4X4X4X4X3X4X4X4X4X4X4X4X4X4X4X4X4X4X4X4X4X4X4X4X4X4X4X4X4X4X4X4X4X",
"4X4X4X4X4X4X4X4X4X4X4X4X4X4X4X4X4X4X4X4X4X4X4X4X4X4X4X4X4X4X4X4X4X4X4X4X4X4X4X4X4X4X4X4X4X4X4X4X4X4X4X3X4X4X4X4X4X4X4X4X4X4X4X4X",
"4X4X4X4X4X4X4X4X4X4X4X4X4X4X4X4X4X3X4X4X4X4X4X4X4X4X4X4X4X4X4X4X4X4X4X4X4X4X4X4X3X4X4X4X4X4X4X4X4X4X4X4X4X4X4X4X4X4X4X4X4X4X4X4X",
"4X4X4X4X4X4X4X4X4X4X4X4X4X4X4X4X4X4X4X4X4X4X4X4X4X4X4X4X4X4X4X4X4X4X4X4X4X4X4X4X4X4X4X4X4X4X4X4X4X4X4X4X4X4X4X4X4X4X4X4X4X4X4X4X",
"4X4X4X3X4X4X4X4X4X4X4X4X4X3X4X4X4X4X4X4X4X4X4X4X4X4X4X4X4X4X4X4X4X4X4X4X4X4X4X4X4X4X4X4X4X4X4X4X4X4X4X4X4X4X4X4X4X4X4X4X4X4X4X4X",
"4X4X4X4X4X4X4X4X4X4X4X4X4X4X4X4X4X4X4X4X4X4X4X4X4X4X4X4X4X4X4X4X4X4X4X4X4X4X4X4X4X4X4X4X4X4X3X4X4X4X4X4X4X4X4X4X4X4X4X4X4X4X4X4X",
"4X4X4X4X4X4X4X4X4X4X4X4X4X4X4X4X4X4X4X4X4X4X4X3X4X4X4X4X4X4X4X3X3X3X4X3X4X4X4X4X4X4X4X4X4X4X4X4X4X4X4X4X4X4X4X4X4X4X4X4X4X4X4X4X",
"4X4X4X4X4X4X4X4X4X4X4X4X4X4X4X4X4X4X4X4X4X4X4X4X4X4X4X4X5X5X5X5X5X6X3X3X4X4X4X4X4X4X4X4X4X4X4X4X4X4X4X4X4X4X4X4X4X4X4X4X4X4X4X4X",
"4X4X4X4X4X4X4X4X4X4X4X4X4X4X4X4X4X4X4X3X4X4X4X4X4X4X5X1Xg.g.g.f.f.f.4X6X4X3X4X4X4X4X4X4X4X4X4X4X4X4X4X4X4X4X4X4X4X4X4X4X4X4X4X4X",
"4X4X4X4X4X4X4X4X4X4X4X4X4X4X4X4X4X4X4X4X4X4X4X4X4X4Xf.] q q q q w _ t.r.j.5X4X4X4X4X4X4X4X4X4X4X4X4X4X4X4X4X4X4X4X4X4X4X4X4X4X4X",
"4X4X4X4X4X4X4X4X4X3X4X4X4X4X4X4X4X4X4X4X4X4X4X5Xf.l 0 ( ^ ~ ......U.| o.} l t.2X4X3X4X4X4X4X4X4X4X4X4X4X4X4X4X4X4X4X4X4X4X4X4X4X",
"3X4X4X4X4X4X4X4X4X4X4X4X4X4X4X4X4X4X4X4X3X3X4Xf.0 9 ! ^ | ..I.I.I.I.I.Y.U.@.o.t.2X4X3X3X4X4X4X4X4X4X4X4X4X4X4X2X4X4X3X4X4X4X4X4X",
"4X4X4X4X4X4X3X4X4X4X4X4X4X4X4X4X4X4X4X4X3X5Xf.0 Y ~ ^ | @.I.@.@.I.I.X.I.I.U._.#.t.2X4X4X4X4X4X4X4X4X3X4X4X4X4X4X4X4X4X4X4X4X4X4X",
"4X4X4X4X4X4X4X4X4X4X4X4X4X4X4X3X4X4X3X3X4Xg.0 Y W ^ | I.@.I.@.@.O.I.I.O.I.@.I._.#.t.2X5X4X4X4X4X4X4X4X4X4X4X4X4X4X4X4X4X4X4X4X4X",
"4X4X4X4X4X4X4X4X4X4X4X4X4X4X4X4X4X4X3X3X5Xl 9 R ! ^ X.I.@.@.I.@.I.I.I.I.I.I.@.I._.#.t.3X4X4X4X4X4X4X4X4X4X4X4X4X4X4X4X4X4X4X4X4X",
"4X4X4X4X4X3X4X4X4X4X4X4X4X4X4X4X4X4X4X6Xd.0 q W ^ ^ @.I.@.I.@.@.I.O.+.+.O.+.+.+.U.(.} :X4X4X4X4X4X4X4X4X4X4X4X4X4X4X4X4X4X4X4X4X",
"4X4X4X4X4X4X4X4X4X4X4X4X4X4X4X4X4X4X3X1X] w R ~ ^ ^ @.I.@.@.@.@.Y.E.E.E.E.E.E.E.!.`.#.x 5X4X4X4X4X4X4X4X4X4X4X3X4X4X4X4X4X4X4X4X",
"4X4X4X4X4X4X4X4X4X4X4X4X4X4X4X4X4X4X5Xh.9 Y R ^ ^ ..I.@.@.@.Y.Q.^.^.[.[.[.[.[.[.;X;X`.} k.4X4X4X4X4X4X4X4X4X4X4X4X4X4X4X4X4X4X4X",
"4X4X4X4X4X4X4X4X4X3X4X4X4X4X4X4X4X3X5Xf.5 Y R ~ ~ ..I.@.@.Q.^.^.].U.(.(.(.(.).).(._.;X~.r.6X4X4X4X4X4X4X4X4X4X4X4X4X4X4X4X4X4X4X",
"4X4X4X4X4X4X4X4X4X4X4X4X4X4X4X4X3X5Xj.z w q ! ^ ^ ..I.I.Q.W.T.#. ._ _ ) ) ) ) ) _ O.'.~.r.4X4X4X4X4X4X4X4X4X4X4X4X4X4X4X4X4X4X4X",
"4X4X3X4X4X4X4X4X4X4X4X4X4X4X4X4X3X4Xj.6 Y Y ! ^ ~ ..I.Q.W.o._ p ,. XoX.X X X XXX X<.7.o.u.5X4X4X4X4X4X4X4X4X4X4X4X4X4X4X3X4X4X4X",
"4X4X4X4X4X4X4X4X4X4X4X4X4X4X4X4X4X4Xj.6 q Y ~ ^ ^ ..Q.W.o.` C.D.Z.H.tX-X-XtXyXoX+X%X} o.u.4X4X4X4X4X4X4X4X4X4X4X4X4X4X4X4X4X4X4X",
"4X4X4X4X4X4X4X4X4X4X4X4X4X4X3X4X4X5Xj.0 Y W ^ ^ ~ R.W.#.` C.|.{.;.  2.yX=X-X$Xd 3 @X8. .u.5X4X4X4X4X4X3X4X4X4X4X4X4X4X4X4X4X4X4X",
"4X4X4X4X3X4X4X4X4X4X4X4X4X4X4X4X4X5XM.6 q ! ^ ~ L.R...p C.|.$X{.}.n # -X*X&X#Xx.  G.8.| t.6X4X4X4X3X4X4X4X4X4X4X4X4X4X4X4X4X4X4X",
"4X4X4X4X4X4X4X4X4X4X4X4X4X4X4X4X3X3Xj.6 q ! ^ ~ P.K.Q ` Z.|.&XXXG   d =X*X*XH.@   +X8.} f.5X4X4X4X4X4X4X4X4X4X4X4X4X4X4X4X4X4X4X",
"4X4X4X4X4X4X4X4X4X4X4X4X4X4X4X4X3X5Xj.6 Y ! W / P.K.8 :.Z.|.&X%XF @ c =X*X*XC.@ @ +X;.z 5X2XM.4X4X4X4X4X4X4X4X4X4X4X4X4X4X4X4X4X",
"4X4X4X4X4X4X4X4X4X4X4X4X4X4X4X4X3X4Xj.e q Y 5 R P.K.7 B Z.|.%X-X4.@ c =X*XyXoX  @ @Xc.k.5X4Xb.b.4X4X4X4X4X4X4X4X3X4X4X4X4X4X4X4X",
"4X3X4X4X4X4X4X4X4X4X4X4X4X4X4X4X3X3X5Xu.9 Y w 0 L.K.7 & K C.XX-X*X2.OXrXrXuXyX0.G.%Xz.4X3X5X2Xa.M.4X4X4X4X4X4X4X4X4X4X4X4X2X4X4X",
"4X4X4X4X4X4X3X3X4X4X3X4X4X4X4X4X3X3X6Xg.5 Y R 6 J.' O - % : ;.S.F.F.G.F.F.F.F.+X@XJ 3 2X4X3X4XM.y.<X4X4X4X4X4X4X4X4X4X4X4X4X4X4X",
"4X4X4X4X4X4X3X3X4X4X4X4X4X4X4X4X4X4X5X<X] 9 Y E T ' Y X - 1 2 > N D D V V D D V u V c 3X4X3X4Xv.8X7X1X4X4X4X4X4X4X4X4X4X4X4X4X4X",
"4X4X4X4X4X4X3X3X4X4X4X4X4X4X4X4X4X3X3X6Xr.5 q q W T ' 7 & - 1 u D L J L L L J L V 4 s.4X4X4X3Xb.eX0X<X4X3X4X4X4X4X4X4X4X4X4X4X4X",
"4X4X4X4X4X4X4X4X4X4X4X4X4X4X4X4X3X3X3Xd.6 R q 5 0 5 5 5 X % & > > , , u B i , , 3 s.4X4X4X5X,X8XaX7X,X5X4X4X4X4X4X4X4X4X4X4X4X4X",
"4X4X4X4X4X4X4X4X4X4X4X4X4X4X3X4X3X5Xd.6 q W ^ / E E q E E E + $ % > > > > > - % u.6X2X2X5X4X<XwXpXm.<X4X4X4X4X4X4X4X4X4X4X4X4X4X",
"4X4X4X4X4X4X4X4X4X4X4X4X4X4X4X4X5Xd.0 w 9 5 9 R Q Q Q Q Q Q g f - $ $ . $ . + q ] M.5X5Xs.s.7XaXqXM.3X4X4X4X4X4X3X4X4X4X4X4X4X4X",
"4X4X4X4X4X3X4X4X4X4X4X4X4X4X4X4X5Xz 5 r p h t X X : : a i a ,.,.H h a i : S : q 7 k.,X2Xn # wXeXn.<X5X4X4X4X4X4X4X4X4X4X4X4X4X4X",
"4X4X4X4X4X4X4X4X4X4X4X4X4X4X4X3X5XM t h =.4.a y Z f - 1 J V S >.9.&.F 2 V J & G <.p.v m M & M m.M.4X4X4X4X4X4X4X4X4X4X4X4X4X4X4X",
"4X4X4X4X4X4X4X4X4X4X4X4X4X4X4X5XM.3 . % u 9.F A %.<.F , & C D N &.< 2 J 2 $ : 4.q.f > V N L > k ,X4X4X4X4X4X4X4X4X4X4X4X4X4X4X4X",
"4X4X4X4X4X4X4X4X4X4X4X4X4X4X4X:Xk % > , > G p s %.*.9.5.G : - 1 1 1 ; % i G i =.9.: . < D J P 3 v.4X4X4X4X4X4X4X4X4X4X4X4X4X3X4X",
"4X4X4X4X4X4X4X4X4X4X4X3X4X4X<Xk $ > , B P , O t Z &.>.>.S & $ % 1 P D . G %.s a =.; $ 2 S J K n 6X4X4X4X4X4X4X4X4X4X4X4X4X4X4X4X",
"4X3X4X4X4X4X4X4X4X4X4X4X3X5Xj.* > , B J S   O 8 i , - < 1 C - & = > D ;.D d p.b h % = > , u - w.4X4X4X4X4X4X4X4X4X4X4X4X4X4X4X4X",
"4X4X4X4X4X4X4X4X4X4X4X4X3X5X>X* & , B 2   n N.d $ u B , , ; f G I 3 = 1 D 4 j.4Xi.v * & > & M 4X4X4X4X4X4X4X4X4X4X4X4X4X4X4X4X4X",
"4X4X4X4X4X4X4X4X4X4X4X4X3X3Xt.8 $ > D . j qXpX0Xf % % X . . 4 b 7Xm.* o . o j.5X4X5Xe.$ . w.3X4X4X4X4X4X4X4X3X4X4X4X4X3X4X4X4X4X",
"4X4X4X4X4X4X4X4X4X3X4X4X4X4Xz ( t . = @ l.qXeXpX8Xz.3 X ; ; % d n.l.f S u X k.6X4X4X2Xk.h.2X4X4X4X4X4X4X4X4X4X4X4X4X4X4X4X4X4X4X",
"4X4X4X4X4X4X3X4X4X4X4X4X3Xj.[ ! q q O 0 } m.0XwXiXpXB.y.z.4 > 2 C S B , A G { f.,X5X3X6X5X4X4X4X4X4X4X4X4X4X4X4X4X4X4X4X4X4X4X4X",
"4X4X4X4X4X4X4X4X4X4X4X4X4Xl w ~ Y Y Y q 8 1.z.x.8XqX8X{ 4 & & & > > i a 9.}.{.-.1.1X5X3X4X4X4X4X4X4X4X4X4X4X4X4X4X4X4X4X4X4X4X4X",
"4X4X4X4X4X4X4X4X4X4X4X3X4Xk.r.q 5 q w t %.-.9.q.3.c.c.*.% $ $ $ % : Z 4.9.q.q.q.4.m 1X4X4X4X4X4X4X4X4X4X4X4X4X4X4X4X4X4X4X4X4X4X",
"4X4X4X4X4X4X4X4X4X4X4X3X3X5X4Xg.k.x 8 A %.*.-.<.9.q.{.q.- e.k.k.n > %.*.5.9.9.9.4.%.m 3X4X4X4X4X4X4X4X4X4X4X4X4X4X4X4X4X3X4X4X4X",
"4X4X4X4X4X4X4X4X4X4X4X4X4X3X4X6X6X1Xm A Z =.*.*.<.9.9.9.A h.6X6Xy.y $.$.=.-.,.>.%.Z { 4X4X4X4X4X4X4X4X4X4X4X4X4X4X4X4X4X4X4X4X4X",
"4X3X4X4X4X4X4X4X4X4X4X4X4X4X4X4X4X4X<X{ y y A Z Z Z a a b v.5X3Xf.a y y y a a h m { 1X4X3X4X4X4X4X4X4X4X4X4X4X4X4X4X4X4X4X4X4X4X",
"4X4X4X4X4X4X3X3X4X4X4X3X4X4X4X4X4X4X4X<Xp.i.i.i.i.p.i.i.v.4X3X4X5Xb.p.a.i.i.p.h.5X5X3X3X4X4X4X4X4X4X4X4X4X4X4X4X4X4X4X4X4X4X3X4X",
"4X4X4X4X3X3X3X3X4X4X4X4X4X4X4X4X4X4X4X4X6X5X5X5X6X6X6X6X5X4X4X4X4X4X5X5X6X6X6X5X3X3X3X3X4X4X4X4X4X4X4X4X3X4X4X4X4X4X4X4X4X4X4X4X",
"4X4X4X4X4X4X4X4X4X4X4X4X4X4X4X4X4X4X4X4X4X4X4X4X3X3X3X3X4X4X4X4X4X4X3X3X3X3X3X4X3X4X4X4X4X4X4X4X4X4X4X4X4X4X4X4X4X4X4X4X4X4X4X4X",
"4X4X4X4X4X4X4X4X4X4X4X4X4X4X4X4X4X4X4X4X3X4X4X4X3X3X4X4X4X4X4X4X4X4X4X4X4X4X4X4X4X4X4X4X4X4X4X4X4X3X4X4X4X4X4X4X4X4X4X4X4X4X4X4X",
"4X4X4X4X4X4X4X4X4X4X4X4X4X4X4X4X4X4X4X4X4X4X4X4X4X4X4X4X4X4X4X4X4X4X4X4X4X4X3X4X4X4X4X4X4X4X4X4X4X4X4X4X4X4X4X4X3X4X4X4X4X4X4X4X",
"4X4X3X4X4X4X4X4X4X4X4X4X3X4X4X4X4X4X4X4X4X4X4X4X4X4X4X3X4X4X4X4X4X4X4X4X4X4X4X4X4X4X4X4X3X4X4X4X4X4X4X4X4X4X4X4X4X4X4X4X4X4X4X4X",
"4X4X4X4X4X4X4X4X4X4X4X4X4X4X4X4X4X4X4X4X4X3X4X4X4X4X4X4X4X4X4X3X4X4X4X3X4X4X4X4X4X4X4X4X4X4X4X4X4X4X3X4X4X4X4X4X4X4X4X4X4X4X4X4X",
"4X4X4X4X4X4X4X4X4X4X4X4X4X3X4X4X4X4X4X4X3X3X4X4X4X4X4X4X4X4X4X4X4X4X4X4X4X4X4X4X4X4X3X4X4X4X4X4X4X4X4X4X4X4X4X4X4X4X4X4X4X4X4X4X",
"4X4X4X4X4X4X4X4X4X4X4X4X4X4X4X4X4X4X4X4X4X4X4X4X3X4X4X4X4X4X4X4X4X4X4X4X4X4X4X4X4X4X4X4X4X4X4X4X4X4X4X4X4X4X4X4X4X4X4X4X4X4X4X4X",
"4X4X4X4X4X4X4X4X4X4X4X4X4X4X4X4X4X4X4X4X4X4X4X4X4X4X4X4X4X4X4X4X4X4X4X4X4X4X4X4X4X4X4X4X4X4X4X4X4X4X4X4X4X4X4X4X4X4X4X4X3X4X4X4X",
"4X4X4X4X4X4X4X4X4X4X3X4X4X4X4X4X3X4X4X4X4X4X4X4X4X4X4X4X4X4X4X4X4X4X4X4X4X4X4X4X4X4X4X4X4X3X4X4X4X4X4X4X4X4X4X4X4X4X4X4X4X4X4X4X",
"4X4X4X4X4X4X4X4X4X4X4X4X4X4X4X4X4X4X4X4X4X4X4X4X4X4X4X4X4X4X4X4X4X4X4X4X4X4X3X4X4X4X4X4X4X4X4X4X4X4X4X4X4X4X4X4X4X4X4X4X4X4X4X4X",
"4X4X4X4X4X4X4X4X4X4X4X4X4X4X4X4X4X4X4X4X4X4X4X3X4X4X4X4X4X4X4X4X4X4X4X4X4X4X4X4X4X4X4X4X4X4X4X4X4X4X4X4X4X4X4X4X4X4X4X4X4X4X4X4X",
"4X4X4X4X4X4X4X4X4X4X4X4X4X4X4X4X4X4X4X4X4X4X4X4X4X4X4X4X4X4X4X4X4X3X4X4X4X4X4X4X4X4X4X4X4X4X4X4X4X4X4X4X4X4X3X4X4X4X4X4X4X4X4X4X"
};
