/* XPM */
static char *result[] = {
/* columns rows colors chars-per-pixel */
"64 64 160 2 ",
"   c #3A0F1F",
".  c #3B0F1F",
"X  c #3D0E1E",
"o  c #151226",
"O  c #151327",
"+  c #171226",
"@  c #1B1225",
"#  c #191226",
"$  c #1A1327",
"%  c #1C1225",
"&  c #1D1225",
"*  c #1D1226",
"=  c #1E1326",
"-  c #1F1327",
";  c #360F20",
":  c #231124",
">  c #201327",
",  c #201427",
"<  c #281123",
"1  c #2B1022",
"2  c #2C1022",
"3  c #2E1123",
"4  c #2E1224",
"5  c #211428",
"6  c #221529",
"7  c #231529",
"8  c #241529",
"9  c #2D1729",
"0  c #2E162A",
"q  c #301021",
"w  c #321122",
"e  c #331123",
"r  c #321326",
"t  c #341427",
"y  c #3E1021",
"u  c #3E1121",
"i  c #371629",
"p  c #3B172A",
"a  c #3B182B",
"s  c #38182C",
"d  c #3D192D",
"f  c #3F192D",
"g  c #430E1D",
"h  c #4D0D1B",
"j  c #4F0D1B",
"k  c #4A0D1C",
"l  c #4B0D1C",
"z  c #510D1B",
"x  c #520D1B",
"c  c #530D1B",
"v  c #540E1C",
"b  c #550E1C",
"n  c #550E1D",
"m  c #570F1D",
"M  c #570F1E",
"N  c #4F101F",
"B  c #50101F",
"V  c #58101E",
"C  c #59101E",
"Z  c #411021",
"A  c #421121",
"S  c #401122",
"D  c #401223",
"F  c #431324",
"G  c #461426",
"H  c #4E1324",
"J  c #4A1527",
"K  c #41192D",
"L  c #441B2F",
"P  c #4D182A",
"I  c #511020",
"U  c #521425",
"Y  c #5D1221",
"T  c #5A1525",
"R  c #5C1425",
"E  c #5C1627",
"W  c #5F1627",
"Q  c #541A2D",
"!  c #551B2E",
"~  c #591D31",
"^  c #5E1E32",
"/  c #611323",
"(  c #611424",
")  c #621627",
"_  c #641525",
"`  c #671626",
"'  c #671727",
"]  c #6A1728",
"[  c #6B1728",
"{  c #62182A",
"}  c #641A2B",
"|  c #69192A",
" . c #6C192A",
".. c #6F192A",
"X. c #6F1A2C",
"o. c #6D1D2F",
"O. c #701B2C",
"+. c #721C2D",
"@. c #721C2E",
"#. c #751C2E",
"$. c #681F33",
"%. c #6F1F31",
"&. c #751E30",
"*. c #761E30",
"=. c #791E30",
"-. c #7A1E30",
";. c #7D1F32",
":. c #5F2A32",
">. c #632035",
",. c #742135",
"<. c #7B2033",
"1. c #7C2133",
"2. c #7E2234",
"3. c #7F2235",
"4. c #7C2337",
"5. c #663139",
"6. c #832235",
"7. c #812336",
"8. c #822437",
"9. c #832537",
"0. c #83263B",
"q. c #892539",
"w. c #8B253A",
"e. c #8D263B",
"r. c #8F273C",
"t. c #8C2B3C",
"y. c #8D2C3D",
"u. c #91283D",
"i. c #93293E",
"p. c #953642",
"a. c #983342",
"s. c #983A44",
"d. c #9F3A46",
"f. c #BE4F55",
"g. c #AA5350",
"h. c #B65656",
"j. c #B75756",
"k. c #B95757",
"l. c #BD5F5A",
"z. c #986958",
"x. c #B06052",
"c. c #A1745F",
"v. c #A27A69",
"b. c #CA575B",
"n. c #C45A5B",
"m. c #C65C5C",
"M. c #CD5F5F",
"N. c #D55E61",
"B. c #A3877C",
"V. c #D7876C",
"C. c #DE8D70",
"Z. c #DE937A",
"A. c #E79A76",
"S. c #A59390",
"D. c #A6A0A4",
"F. c #A7A6AE",
"G. c #E0A08E",
"H. c #E1ACA2",
"J. c #E2B9B5",
"K. c #E3BFBF",
/* pixels */
"O O O O O O O O O O O O O O O O O O O O O O O O O O O O O O O O O O O O O O O O O O O O O O O O O O O O O O O O O O O O O O O O ",
"O O 9 :.z.c.c.c.c.S.F.F.F.F.F.F.F.F.S.v.D.B.c.c.c.c.c.z.:.9 O O O O 9 :.z.c.c.c.c.S.F.F.F.F.F.F.F.F.S.v.D.B.c.c.c.c.c.z.:.9 O O ",
"O 0 5.x.V.C.C.C.C.H.K.K.K.K.K.K.K.K.H.Z.J.G.C.C.C.C.C.V.x.5.0 O O 0 5.x.V.C.C.C.C.H.K.K.K.K.K.K.K.K.H.Z.J.G.C.C.C.C.C.V.x.5.0 O ",
"O ~ g.A.l.h.h.h.h.h.h.h.h.h.h.h.h.h.h.h.h.h.h.h.h.h.h.l.A.g.~ O O ~ g.A.l.h.h.h.h.h.h.h.h.h.h.h.h.h.h.h.h.h.h.h.h.h.h.l.A.g.~ O ",
"O ~ s.l.j.h.h.h.h.h.h.h.h.h.h.h.h.h.h.h.h.h.h.h.h.h.h.j.l.s.~ O O ~ s.l.j.h.h.h.h.h.h.h.h.h.h.h.h.h.h.h.h.h.h.h.h.h.h.j.l.s.~ O ",
"O ~ p.h.h.h.h.h.h.h.h.h.h.h.h.h.h.h.h.h.h.h.h.h.h.h.h.h.h.p.~ O O ~ p.h.h.h.h.h.h.h.h.h.h.h.h.h.h.h.h.h.h.h.h.h.h.h.h.h.h.p.~ O ",
"O ~ p.h.h.h.h.h.h.h.h.h.h.h.h.h.h.h.h.h.h.h.h.h.h.h.h.h.h.p.~ O O ~ p.h.h.h.h.h.h.h.h.h.h.h.h.h.h.h.h.h.h.h.h.h.h.h.h.h.h.p.~ O ",
"O ~ p.h.h.h.h.h.h.h.h.h.h.h.h.h.h.h.h.h.h.h.h.h.h.h.h.h.h.p.~ O O ~ p.h.h.h.h.h.h.h.h.h.h.h.h.h.h.h.h.h.h.h.h.h.h.h.h.h.h.p.~ O ",
"O ~ p.h.h.h.h.h.h.h.h.h.h.h.h.h.h.h.h.h.h.h.h.h.h.h.h.h.h.p.~ O O ~ p.h.h.h.h.h.h.h.h.h.h.h.h.h.h.h.h.h.h.h.h.h.h.h.h.h.h.p.~ O ",
"O ~ d.M.k.h.h.h.h.h.h.h.h.h.h.h.h.h.h.h.h.h.h.h.h.h.h.k.M.d.~ O O ~ d.M.k.h.h.h.h.h.h.h.h.h.h.h.h.h.h.h.h.h.h.h.h.h.h.k.M.d.~ O ",
"O ~ a.f.n.m.m.m.m.m.m.m.m.m.m.m.m.m.m.m.m.m.m.m.m.m.m.n.f.a.~ O O ~ a.f.n.m.m.m.m.m.m.m.m.m.m.m.m.m.m.m.m.m.m.m.m.m.m.n.f.a.~ O ",
"O ~ 8.t.b.N.N.N.N.N.N.N.N.N.N.N.N.N.N.N.N.N.N.N.N.N.N.b.t.8.~ O O ~ 8.t.b.N.N.N.N.N.N.N.N.N.N.N.N.N.N.N.N.N.N.N.N.N.N.b.t.8.~ O ",
"O ~ 8.9.t.y.y.y.y.y.y.y.y.y.y.y.y.y.y.y.y.y.y.y.y.y.y.t.9.8.~ O O ~ 8.9.t.y.y.y.y.y.y.y.y.y.y.y.y.y.y.y.y.y.y.y.y.y.y.t.9.8.~ O ",
"O ~ 8.8.8.8.8.8.8.8.8.8.8.8.8.8.8.8.8.8.8.8.8.8.8.8.8.8.8.8.~ O O ~ 8.8.8.8.8.8.8.8.8.8.8.8.8.8.8.8.8.8.8.8.8.8.8.8.8.8.8.8.~ O ",
"O f $.8.8.8.8.8.8.8.8.8.8.8.8.8.8.8.8.8.8.8.8.8.8.8.8.8.8.$.f O O f $.8.8.8.8.8.8.8.8.8.8.8.8.8.8.8.8.8.8.8.8.8.8.8.8.8.8.$.f O ",
"O O s ,.,.,.,.,.,.,.,.,.,.,.,.,.,.,.,.,.,.,.,.,.,.,.,.,.,.s O O O O s ,.,.,.,.,.,.,.,.,.,.,.,.,.,.,.,.,.,.,.,.,.,.,.,.,.,.s O O ",
"O O $ 6 6 6 6 6 6 6 6 6 6 6 6 6 6 6 6 6 6 6 6 6 6 6 6 6 6 $ O O O O $ 6 6 6 6 6 6 6 6 6 6 6 6 6 6 6 6 6 6 6 6 6 6 6 6 6 6 $ O O ",
"O O O O O O O O O O O O O O O O O O O O O O O O O O O O O O O O O O O O O O O O O O O O O O O O O O O O O O O O O O O O O O O O ",
"O O & 3 a d d d d d d d d d d d d d i < + O O + < i d d d d d d d d d d d d d a 3 & O O O : r d d d d d d d d d d d d d d r : O ",
"O # w Y 1.8.8.8.8.8.8.8.8.8.8.8.8.8.+.B : + + : B +.8.8.8.8.8.8.8.8.8.8.8.8.8.1.Y w # o @ Z ' 8.8.8.8.8.8.8.8.8.8.8.8.8.8.' Z % ",
"O ; R 1.7.8.8.8.8.8.8.8.8.8.8.8.8.8.3.&.B < < B &.3.8.8.8.8.8.8.8.8.8.8.8.8.8.7.1.R ; @ g | 2.8.8.8.8.8.8.8.8.8.8.8.8.8.8.2.| k ",
"O P *.8.8.8.8.8.8.8.8.8.8.8.8.8.8.8.8.3.+.i i +.3.8.8.8.8.8.8.8.8.8.8.8.8.8.8.8.8.*.P > } <.8.8.8.8.8.8.8.8.8.8.8.8.8.8.8.8.<.O.",
"O ~ 8.8.8.8.8.8.8.8.8.8.8.8.8.8.8.8.8.8.8.d d 8.8.8.8.8.8.8.8.8.8.8.8.8.8.8.8.8.8.8.~ 6 ,.8.8.8.8.8.8.8.8.8.8.8.8.8.8.8.8.8.8.8.",
"O ~ 8.8.8.8.8.8.8.8.8.8.8.8.8.8.8.8.8.8.8.d d 8.8.8.8.8.8.8.8.8.8.8.8.8.8.8.8.8.8.8.~ 6 ,.8.8.8.8.8.8.8.8.8.8.8.8.8.8.8.8.8.8.8.",
"O ~ 8.8.8.8.8.8.8.8.8.8.8.8.8.8.8.8.8.8.8.d d 8.8.8.8.8.8.8.8.8.8.8.8.8.8.8.8.8.8.8.~ 6 ,.8.8.8.8.8.8.8.8.8.8.8.8.8.8.8.8.8.8.8.",
"O G X.8.8.8.8.8.8.8.8.8.8.8.8.8.8.8.8.2.' r r ' 2.8.8.8.8.8.8.8.8.8.8.8.8.8.8.8.8.X.G = T *.8.8.8.8.8.8.8.8.8.8.8.8.8.8.8.8.*._ ",
"O 2 H +.3.8.8.8.8.8.8.8.8.8.8.8.8.8.<.| Z : : Z | <.8.8.8.8.8.8.8.8.8.8.8.8.8.3.+.H 2 # ; E *.8.8.8.8.8.8.8.8.8.8.8.8.8.8.*.E . ",
"O O < N %.,.,.,.,.,.,.,.,.,.,.,.,.,.} g @ O O @ g } ,.,.,.,.,.,.,.,.,.,.,.,.,.%.N < O O O ; T ,.,.,.,.,.,.,.,.,.,.,.,.,.,.T ; O ",
"O O + & 5 6 6 6 6 6 6 6 6 6 6 6 6 6 , @ o O O o @ , 6 6 6 6 6 6 6 6 6 6 6 6 6 5 & + O O O # = 6 6 6 6 6 6 6 6 6 6 6 6 6 6 = # O ",
"~ ~ ~ ~ ~ ~ ~ ! y : O O O 2 G ~ ~ ~ ~ ~ ~ ~ ~ ~ ~ ~ ~ ~ ~ G 2 O O O : S ^ >.>.>.>.>.>.>.>.>.>.>.>.>.Q ; # O O # ; P ~ ~ ~ ~ ~ ~ ",
"8.8.8.8.8.8.8.2.' D : + < H X.8.8.8.8.8.8.8.8.8.8.8.8.8.8.X.H < + : F ..e.i.i.i.i.i.i.i.i.i.i.i.i.i.6.) e & & w R *.8.8.8.8.8.8.",
"8.8.8.8.8.8.8.8.8.' u & N +.8.8.8.8.8.8.8.8.8.8.8.8.8.8.8.8.+.N & S ..i.i.i.i.i.i.i.i.i.i.i.i.i.i.i.i.w./ 4 3 Y 1.8.8.8.8.8.8.8.",
"8.8.8.8.8.8.8.8.8.2.! 5 %.3.8.8.8.8.8.8.8.8.8.8.8.8.8.8.8.8.3.%.5 ^ e.i.i.i.i.i.i.i.i.i.i.i.i.i.i.i.i.u.w.K a 1.7.8.8.8.8.8.8.8.",
"8.8.8.8.8.8.8.8.8.8.~ 6 ,.8.8.8.8.8.8.8.8.8.8.8.8.8.8.8.8.8.8.,.6 >.i.i.i.i.i.i.i.i.i.i.i.i.i.i.i.i.i.i.i.L d 8.8.8.8.8.8.8.8.8.",
"8.8.8.8.8.8.8.8.8.*.P > } <.8.8.8.8.8.8.8.8.8.8.8.8.8.8.8.8.<.} > Q 6.i.i.i.i.i.i.i.i.i.i.i.i.i.i.i.i.r.;.p i +.3.8.8.8.8.8.8.8.",
"8.8.8.8.8.8.8.7.1.( . % k  .2.8.8.8.8.8.8.8.8.8.8.8.8.8.8.2. .k % . ` w.u.i.i.i.i.i.i.i.i.i.i.i.i.i.r.6.C 1 1 M *.3.8.8.8.8.8.8.",
"8.8.8.8.8.8.8.1.Y v . % k n ' 8.8.8.8.8.8.8.8.8.8.8.8.8.8.' n k % . b / w.i.i.i.i.i.i.i.i.i.i.i.i.i.;.C c 1 1 x M +.8.8.8.8.8.8.",
"_ _ _ _ _ _ _ ( v   : + < g V _ _ _ _ _ _ _ _ _ _ _ _ _ _ V g < + :   b ` ] ] ] ] ] ] ] ] ] ] ] ] ] / h q & & q h Y _ _ _ _ _ _ ",
". . . . . . . . . : O O O 2 . . . . . . . . . . . . . . . . 2 O O O : . . . . . . . . . . . . . . . . ; # O O # ; . . . . . . . ",
"O O + * 7 8 8 8 8 8 8 8 8 8 8 8 8 8 5 @ o O O o @ 5 8 8 8 8 8 8 8 8 8 8 8 8 8 7 * + O O O # - 8 8 8 8 8 8 8 8 8 8 8 8 8 8 - # O ",
"O O < I 4.0.0.0.0.0.0.0.0.0.0.0.0.0.o.g @ O O @ g o.0.0.0.0.0.0.0.0.0.0.0.0.0.4.I < O O O ; W 0.0.0.0.0.0.0.0.0.0.0.0.0.0.W ; O ",
"O 2 U ;.r.i.i.i.i.i.i.i.i.i.i.i.i.i.q.@.A : : A @.q.i.i.i.i.i.i.i.i.i.i.i.i.i.r.;.U 2 # ; { 6.i.i.i.i.i.i.i.i.i.i.i.i.i.i.6.{ . ",
"O J =.i.i.i.i.i.i.i.i.i.i.i.i.i.i.i.i.e...t t ..e.i.i.i.i.i.i.i.i.i.i.i.i.i.i.i.i.=.J - W 6.i.i.i.i.i.i.i.i.i.i.i.i.i.i.i.i.6.] ",
"O >.i.i.i.i.i.i.i.i.i.i.i.i.i.i.i.i.i.i.i.L L i.i.i.i.i.i.i.i.i.i.i.i.i.i.i.i.i.i.i.>.8 0.i.i.i.i.i.i.i.i.i.i.i.i.i.i.i.i.i.i.i.",
"O >.i.i.i.i.i.i.i.i.i.i.i.i.i.i.i.i.i.i.i.L L i.i.i.i.i.i.i.i.i.i.i.i.i.i.i.i.i.i.i.>.8 0.i.i.i.i.i.i.i.i.i.i.i.i.i.i.i.i.i.i.i.",
"O J =.i.i.i.i.i.i.i.i.i.i.i.i.i.i.i.i.e...t t ..e.i.i.i.i.i.i.i.i.i.i.i.i.i.i.i.i.=.J - W 6.i.i.i.i.i.i.i.i.i.i.i.i.i.i.i.i.6.] ",
"O . / -.-.-.-.-.-.-.-.-.-.-.-.-.-.-.-.#.m 1 1 m #.-.-.-.-.-.-.-.-.-.-.-.-.-.-.-.-./ . % k [ -.-.-.-.-.-.-.-.-.-.-.-.-.-.-.-.[ x ",
"O ; h x x x x x x x x x x x x x x x x z l < < l z x x x x x x x x x x x x x x x x h ; @ g j x x x x x x x x x x x x x x x x j k ",
"O # q x x x x x x x x x x x x x x x x l : + + : l x x x x x x x x x x x x x x x x q # o @ X x x x x x x x x x x x x x x x x X % ",
"O O & 1 1 1 1 1 1 1 1 1 1 1 1 1 1 1 1 < + O O + < 1 1 1 1 1 1 1 1 1 1 1 1 1 1 1 1 & O O O : 1 1 1 1 1 1 1 1 1 1 1 1 1 1 1 1 : O ",
"d d d d d d d a 3 & O O O : r d d d d d d d d d d d d d d r : O O O & 3 a d d d d d d d d d d d d d i < + O O + < i d d d d d d ",
"8.8.8.8.8.8.8.1.Y w # o @ Z ' 8.8.8.8.8.8.8.8.8.8.8.8.8.8.' Z @ o # w Y 1.8.8.8.8.8.8.8.8.8.8.8.8.8.+.B : + + : B +.8.8.8.8.8.8.",
"8.8.8.8.8.8.8.7.1.R ; @ g | 2.8.8.8.8.8.8.8.8.8.8.8.8.8.8.2.| g @ ; R 1.7.8.8.8.8.8.8.8.8.8.8.8.8.8.3.&.B < < B &.3.8.8.8.8.8.8.",
"8.8.8.8.8.8.8.8.8.*.P > } <.8.8.8.8.8.8.8.8.8.8.8.8.8.8.8.8.<.} > P *.8.8.8.8.8.8.8.8.8.8.8.8.8.8.8.8.3.+.i i +.3.8.8.8.8.8.8.8.",
"8.8.8.8.8.8.8.8.8.8.~ 6 ,.8.8.8.8.8.8.8.8.8.8.8.8.8.8.8.8.8.8.,.6 ~ 8.8.8.8.8.8.8.8.8.8.8.8.8.8.8.8.8.8.8.d d 8.8.8.8.8.8.8.8.8.",
"8.8.8.8.8.8.8.8.8.8.~ 6 ,.8.8.8.8.8.8.8.8.8.8.8.8.8.8.8.8.8.8.,.6 ~ 8.8.8.8.8.8.8.8.8.8.8.8.8.8.8.8.8.8.8.d d 8.8.8.8.8.8.8.8.8.",
"8.8.8.8.8.8.8.8.8.8.~ 6 ,.8.8.8.8.8.8.8.8.8.8.8.8.8.8.8.8.8.8.,.6 ~ 8.8.8.8.8.8.8.8.8.8.8.8.8.8.8.8.8.8.8.d d 8.8.8.8.8.8.8.8.8.",
"8.8.8.8.8.8.8.8.8.X.G = T *.8.8.8.8.8.8.8.8.8.8.8.8.8.8.8.8.*.T = G X.8.8.8.8.8.8.8.8.8.8.8.8.8.8.8.8.2.' r r ' 2.8.8.8.8.8.8.8.",
"8.8.8.8.8.8.8.3.+.H 2 # ; E *.8.8.8.8.8.8.8.8.8.8.8.8.8.8.*.E ; # 2 H +.3.8.8.8.8.8.8.8.8.8.8.8.8.8.<.| Z : : Z | <.8.8.8.8.8.8.",
",.,.,.,.,.,.,.%.N < O O O ; T ,.,.,.,.,.,.,.,.,.,.,.,.,.,.T ; O O O < N %.,.,.,.,.,.,.,.,.,.,.,.,.,.} g @ O O @ g } ,.,.,.,.,.,.",
"6 6 6 6 6 6 6 5 & + O O O # = 6 6 6 6 6 6 6 6 6 6 6 6 6 6 = # O O O + & 5 6 6 6 6 6 6 6 6 6 6 6 6 6 , @ o O O o @ , 6 6 6 6 6 6 ",
"O O O O O O O O O O O O O O O O O O O O O O O O O O O O O O O O O O O O O O O O O O O O O O O O O O O O O O O O O O O O O O O O ",
"O O O O O O O O O O O O O O O O O O O O O O O O O O O O O O O O O O O O O O O O O O O O O O O O O O O O O O O O O O O O O O O O ",
"O O O O O O O O O O O O O O O O O O O O O O O O O O O O O O O O O O O O O O O O O O O O O O O O O O O O O O O O O O O O O O O O "
};
